<?xml version="1.0" encoding="UTF-8" standalone="no"?>
<svg
   width="50mm"
   height="50mm"
   viewBox="0 0 141.73225 141.73225"
   version="1.1"
   id="svg92"
   sodipodi:docname="harp.svg"
   inkscape:version="1.3.2 (091e20e, 2023-11-25, custom)"
   xmlns:inkscape="http://www.inkscape.org/namespaces/inkscape"
   xmlns:sodipodi="http://sodipodi.sourceforge.net/DTD/sodipodi-0.dtd"
   xmlns="http://www.w3.org/2000/svg"
   xmlns:svg="http://www.w3.org/2000/svg">
  <sodipodi:namedview
     id="namedview92"
     pagecolor="#ffffff"
     bordercolor="#111111"
     borderopacity="1"
     inkscape:showpageshadow="0"
     inkscape:pageopacity="0"
     inkscape:pagecheckerboard="1"
     inkscape:deskcolor="#d1d1d1"
     inkscape:document-units="mm"
     inkscape:zoom="2.1340386"
     inkscape:cx="163.53968"
     inkscape:cy="95.827695"
     inkscape:window-width="1920"
     inkscape:window-height="1017"
     inkscape:window-x="-8"
     inkscape:window-y="-8"
     inkscape:window-maximized="1"
     inkscape:current-layer="svg92"
     inkscape:lockguides="true" />
  <defs
     id="defs1">
    <style
       id="style1">.a{fill:#fff;}.b{fill:#a99562;}</style>
  </defs>
  <path
     class="b"
     d="m 62.948487,27.769113 a 1.2815514,1.2815514 0 0 0 0.257045,0.02415 1.4532912,1.4532912 0 1 0 -0.257045,-0.02415 z m 0.252666,-2.115252 a 0.65758248,0.65758248 0 0 1 0.115388,0.0088 0.68455805,0.68455805 0 0 1 0.546997,0.795144 0.66859868,0.66859868 0 0 1 -0.777772,0.557868 0.68399312,0.68399312 0 0 1 -0.546856,-0.795285 0.67467172,0.67467172 0 0 1 0.662243,-0.566487 z m 38.227067,8.74729 a 1.4179828,1.4179828 0 0 0 0.25281,0.02373 1.4547035,1.4547035 0 1 0 -0.25281,-0.02373 z m 0.24857,-2.115535 a 0.69486808,0.69486808 0 0 1 0.11539,0.0089 0.68540545,0.68540545 0 0 1 0.54883,0.795144 0.67438925,0.67438925 0 0 1 -0.77763,0.55773 0.68455805,0.68455805 0 0 1 -0.54912,-0.793166 0.67481295,0.67481295 0 0 1 0.66253,-0.568888 z m -12.548583,4.742475 a 1.4184065,1.4184065 0 0 0 0.252808,0.02401 1.452585,1.452585 0 1 0 -1.425045,-1.703698 1.4589405,1.4589405 0 0 0 1.172237,1.679688 z m 0.250548,-2.115252 a 0.71873652,0.71873652 0 0 1 0.117789,0.0086 0.68611162,0.68611162 0 0 1 0.546714,0.797404 0.67297692,0.67297692 0 0 1 -0.662243,0.564227 0.70094112,0.70094112 0 0 1 -0.117648,-0.0088 0.69119602,0.69119602 0 0 1 -0.549115,-0.797404 0.67509542,0.67509542 0 0 1 0.664362,-0.564086 z m 5.984485,1.065182 a 1.4547035,1.4547035 0 0 0 1.4314,-2.265665 1.4367669,1.4367669 0 0 0 -2.59672,0.581598 1.4537149,1.4537149 0 0 0 1.16517,1.684067 z m 0.24843,-2.117512 a 0.75107896,0.75107896 0 0 1 0.11976,0.01102 0.67099965,0.67099965 0 0 1 0.43359,0.278794 0.67919118,0.67919118 0 0 1 0.11115,0.518327 0.69402068,0.69402068 0 0 1 -0.77566,0.555612 0.68681778,0.68681778 0 0 1 -0.54685,-0.799664 0.66859868,0.66859868 0 0 1 0.65786,-0.564086 z m 9.84311,2.185022 a 1.4535736,1.4535736 0 0 0 1.16758,1.684066 1.4325299,1.4325299 0 0 0 1.67531,-1.178592 1.4561158,1.4561158 0 0 0 -1.17224,-1.681807 1.4384617,1.4384617 0 0 0 -1.67065,1.176333 z m 1.42024,-0.431327 a 0.70701415,0.70701415 0 0 1 0.11539,0.0086 0.68893628,0.68893628 0 0 1 0.55081,0.795285 0.68088598,0.68088598 0 0 1 -0.66662,0.566487 0.70221222,0.70221222 0 0 1 -0.11765,-0.0089 0.68653532,0.68653532 0 0 1 -0.54685,-0.795002 0.67792008,0.67792008 0 0 1 0.6645,-0.566487 z M 72.707853,28.458756 a 1.5984791,1.5984791 0 0 0 0.248288,0.01949 1.4353545,1.4353545 0 1 0 -0.248288,-0.01949 z m 0.246028,-2.119772 a 0.75376239,0.75376239 0 0 1 0.119907,0.01088 0.68258078,0.68258078 0 0 1 0.544596,0.795144 0.67382432,0.67382432 0 1 1 -1.326746,-0.235295 0.67650775,0.67650775 0 0 1 0.661819,-0.570724 z m 4.801934,6.161307 a 1.4757473,1.4757473 0 0 0 0.230634,0.01822 1.3343727,1.3343727 0 1 0 -0.230634,-0.01822 z m 0.228657,-1.970206 a 0.68950122,0.68950122 0 0 1 0.111292,0.01017 0.63442021,0.63442021 0 0 1 0.506463,0.739074 0.64232928,0.64232928 0 0 1 -0.722974,0.518327 0.63555008,0.63555008 0 0 1 -0.509994,-0.736956 0.62834718,0.62834718 0 0 1 0.615637,-0.530614 z m -9.64186,-6.810698 a 1.4288578,1.4288578 0 0 0 1.670932,-1.178592 1.452585,1.452585 0 0 0 -1.172237,-1.681807 1.4350721,1.4350721 0 0 0 -1.671073,1.176333 1.4547035,1.4547035 0 0 0 1.172237,1.684066 z m 0.246311,-2.115393 a 0.70320085,0.70320085 0 0 1 0.117648,0.0088 0.68356942,0.68356942 0 0 1 0.548832,0.795144 0.67368308,0.67368308 0 0 1 -0.659983,0.566342 0.70320085,0.70320085 0 0 1 -0.117647,-0.0088 0.68441682,0.68441682 0 0 1 -0.548833,-0.797263 0.67424802,0.67424802 0 0 1 0.659842,-0.564227 z M 52.195686,121.10925 a 4.8081482,4.8081482 0 0 0 0.823531,-9.53551 4.6977037,4.6977037 0 0 0 -0.837655,-0.0733 4.8081482,4.8081482 0 0 0 -0.819153,9.53537 4.6897946,4.6897946 0 0 0 0.833277,0.0734 z m -3.823328,-5.48777 a 3.8802451,3.8802451 0 0 1 3.810334,-3.24173 3.834203,3.834203 0 0 1 0.681875,0.0611 3.9193667,3.9193667 0 0 1 3.145832,4.54433 3.8727597,3.8727597 0 0 1 -4.494187,3.18297 3.9262871,3.9262871 0 0 1 -3.144419,-4.54672 z m 3.825446,3.9431 a 3.2496382,3.2496382 0 1 0 -0.570724,-0.0521 3.2318428,3.2318428 0 0 0 0.570159,0.0524 z m -2.431332,-3.69481 a 2.4607087,2.4607087 0 0 1 2.416079,-2.06073 2.3266782,2.3266782 0 0 1 0.435705,0.0412 2.4842946,2.4842946 0 0 1 1.997746,2.88667 2.44941,2.44941 0 0 1 -2.853903,2.01963 2.485707,2.485707 0 0 1 -1.995627,-2.88681 z m 6.97142,-82.338193 a 3.2305717,3.2305717 0 0 0 -3.742684,2.646854 3.2651738,3.2651738 0 0 0 2.618325,3.777569 3.1335443,3.1335443 0 0 0 0.566628,0.0524 3.2657388,3.2657388 0 0 0 0.557731,-6.47682 z m 1.86428,3.646927 a 2.4635333,2.4635333 0 1 1 -2.431191,-2.930168 2.6356968,2.6356968 0 0 1 0.431327,0.037 2.4943222,2.4943222 0 0 1 1.999864,2.893165 z m 24.415292,68.456516 a 1.2581067,1.2581067 0 1 0 -1.248503,-1.25698 1.2547171,1.2547171 0 0 0 1.248503,1.25698 z m 0,-1.76683 a 0.50844006,0.50844006 0 1 1 -0.498978,0.50985 0.49996606,0.49996606 0 0 1 0.498978,-0.50985 z m -4.252678,-2.48133 a 1.2569768,1.2569768 0 1 0 1.25048,1.25909 1.2547171,1.2547171 0 0 0 -1.25048,-1.25909 z m 0,1.76457 a 0.50759266,0.50759266 0 1 1 0.500955,-0.50548 0.50307319,0.50307319 0 0 1 -0.500955,0.50548 z m 8.441941,1.63393 a 1.2581067,1.2581067 0 1 0 1.248079,1.25697 1.2547171,1.2547171 0 0 0 -1.247373,-1.25697 z m 0,1.76682 a 0.50024853,0.50024853 0 0 1 -0.501237,-0.50971 0.50010729,0.50010729 0 1 1 0.501237,0.50971 z M 101.48909,68.048443 a 1.1970939,1.1970939 0 1 0 1.18961,1.198224 1.1937043,1.1937043 0 0 0 -1.18961,-1.198224 z m 0,1.62729 a 0.43019679,0.43019679 0 1 1 0.42285,-0.429066 0.42511238,0.42511238 0 0 1 -0.42285,0.429066 z m -3.85567,-3.165321 a 1.1982237,1.1982237 0 1 0 1.18721,1.198223 1.1961052,1.1961052 0 0 0 -1.18735,-1.198223 z m 0,1.629691 a 0.43160912,0.43160912 0 1 1 0.42031,-0.431468 0.42963185,0.42963185 0 0 1 -0.42045,0.431468 z m -3.919225,-3.224357 a 1.1970939,1.1970939 0 1 0 1.189465,1.195964 1.1944104,1.1944104 0 0 0 -1.189606,-1.195964 z m 0,1.627432 A 0.43047925,0.43047925 0 1 1 94.13677,66.11171 0.42963185,0.42963185 0 0 1 93.714054,66.543178 Z M 39.505022,93.003811 a 1.0560018,1.0560018 0 0 1 -0.209026,1.470522 1.0310035,1.0310035 0 0 1 -0.627499,0.213544 1.1126363,1.1126363 0 0 1 -0.148154,-0.01102 1.0345343,1.0345343 0 0 1 -0.69049,-0.411695 1.0547307,1.0547307 0 0 1 0.207048,-1.468827 1.0153266,1.0153266 0 0 1 0.773112,-0.204788 1.0359466,1.0359466 0 0 1 0.695009,0.41226 z M 63.59011,123.33579 a 0.41466112,0.41466112 0 0 0 -0.712381,0.0692 l -4.960398,10.74687 a 0.41451988,0.41451988 0 0 0 0.616908,0.51126 31.2137,31.2137 0 0 0 3.478012,-3.01816 v 0 c 1.098654,-1.14187 3.022394,-3.69537 3.799177,-4.74007 a 0.41494358,0.41494358 0 0 0 0.0032,-0.49022 z m -2.174994,7.73394 c -0.513242,0.53316 -1.283105,1.23636 -2.019636,1.85764 l 3.937868,-8.53148 1.631386,2.25761 c -0.85319,1.14216 -2.560702,3.38791 -3.550041,4.41609 z M 111.28772,41.530893 a 9.6210983,9.6210983 0 0 0 -1.30768,-8.745734 8.6468707,8.6468707 0 0 0 -2.75603,-2.411137 v -0.0025 C 102.51007,27.165482 96.75184,29.317455 96.5794,29.396263 a 11.739457,11.739457 0 0 1 -9.50176,1.638308 C 78.297445,28.793479 71.386615,17.538026 70.088539,15.304137 L 69.362035,14.42736 a 1.4178416,1.4178416 0 0 0 -0.802771,-0.448133 l -1.6948,-1.103457 a 1.1835355,1.1835355 0 0 0 -1.381686,0.03446 l -0.172305,0.128099 c -0.01497,-0.0025 -0.02952,-0.0073 -0.04689,-0.0099 a 4.4434837,4.4434837 0 0 0 -3.063775,0.859546 c -1.105857,0.729047 -2.182055,1.886596 -2.062007,3.01957 l -2.221459,1.664859 a 4.9844074,4.9844074 0 0 0 -2.495029,0.913781 4.5053439,4.5053439 0 0 0 -2.019637,2.462827 l -1.443404,1.083684 -0.236284,0.206907 -0.02726,0.128098 a 1.10275,1.10275 0 0 0 -0.155357,0.3915 0.58625964,0.58625964 0 0 0 -0.04463,0.268343 l 0.01751,0.35958 0.103382,0.128099 c 0.164961,0.330062 1.251045,2.499831 1.965262,3.849457 a 57.644816,57.644816 0 0 0 -6.765077,7.317301 2.9195758,2.9195758 0 0 0 -2.856868,2.332327 2.8147807,2.8147807 0 0 0 0.07146,1.514728 65.970098,65.970098 0 0 0 -9.350495,21.515771 c 0,0 -0.08375,0.310714 -0.161289,0.71916 A 71.87803,71.87803 0 0 0 32.772558,77.59539 c -0.04943,0.108326 0.01963,2.408593 0.04675,3.036517 a 73.300109,73.300109 0 0 0 4.350694,26.328293 3.1610849,3.1610849 0 0 0 0.08982,1.04428 4.0837623,4.0837623 0 0 0 1.225341,2.22895 53.75073,53.75073 0 0 0 7.012942,11.79962 c 2.049155,2.33968 4.790353,6.70153 4.233752,9.2998 a 3.9591945,3.9591945 0 0 0 -2.014553,-0.18219 4.2347408,4.2347408 0 0 0 -2.927202,2.38684 4.294765,4.294765 0 0 0 5.789014,5.81726 1.0959708,1.0959708 0 0 0 0.05918,0.12316 1.4450996,1.4450996 0 0 0 1.093569,0.73639 9.2366611,9.2366611 0 0 0 1.016881,0.0565 c 3.748615,0 9.701318,-2.23149 16.885576,-12.78487 2.507316,0.45322 4.682027,0.79091 6.438123,1.00008 l 2.839638,0.49742 c 1.189467,0.3891 3.775591,0.24137 5.103043,-3.12549 L 112.65768,51.773983 a 9.5473745,9.5473745 0 0 0 -1.36996,-10.24309 z M 68.285413,16.405475 c 0.315798,0.570866 7.86246,14.025464 18.260625,16.687714 A 13.609104,13.609104 0 0 0 97.57636,31.260968 c 0.0477,-0.01949 4.77962,-1.622913 8.54646,0.921548 0.19857,0.09392 4.73244,2.361704 3.17619,8.514111 -0.16821,-0.12711 -0.31975,-0.272863 -0.4977,-0.387968 a 3.5811128,3.5811128 0 0 0 -0.0229,-2.583864 0.38457841,0.38457841 0 0 0 -0.25705,-0.207048 0.36056874,0.36056874 0 0 0 -0.32257,0.06765 1.8642802,1.8642802 0 0 1 -1.14159,0.389945 1.9028369,1.9028369 0 0 1 -1.88646,-1.912723 1.9408287,1.9408287 0 0 1 0.60999,-1.405131 0.38471965,0.38471965 0 0 0 0.11976,-0.302945 0.37892908,0.37892908 0 0 0 -0.15676,-0.285433 l -1.63831,-1.206839 a 0.36720671,0.36720671 0 0 0 -0.3593,-0.05014 0.38443718,0.38443718 0 0 0 -0.24179,0.274699 1.8832055,1.8832055 0 0 1 -3.71246,-0.222301 0.38231868,0.38231868 0 0 0 -0.19363,-0.294189 0.37087878,0.37087878 0 0 0 -0.35082,-0.01073 l -1.64269,0.775371 a 0.38373101,0.38373101 0 0 0 -0.21185,0.431327 2.0055136,2.0055136 0 0 1 0.0545,0.459714 1.885324,1.885324 0 0 1 -3.723197,0.444603 0.38245991,0.38245991 0 0 0 -0.485702,-0.276818 l -1.692964,0.518609 a 0.38133005,0.38133005 0 0 0 -0.269897,0.365795 1.8857477,1.8857477 0 1 1 -3.695088,-0.542336 0.38457841,0.38457841 0 0 0 -0.29659,-0.485843 l -1.460635,-0.273993 a 0.38005895,0.38005895 0 0 0 -0.315939,0.08064 0.38457841,0.38457841 0 0 0 -0.139398,0.296591 c 0,1.320249 -1.10162,1.518399 -1.758073,1.518399 -0.03799,0 -0.07062,-0.01977 -0.108043,-0.02232 a 1.4388854,1.4388854 0 0 0 1.32152,-1.184524 1.4456646,1.4456646 0 1 0 -2.62807,0.525671 1.8892785,1.8892785 0 0 1 -0.472002,-1.225058 1.9399813,1.9399813 0 0 1 0.172164,-0.799522 0.38613198,0.38613198 0 0 0 -0.220042,-0.518468 L 79.98702,32.03535 a 0.38260115,0.38260115 0 0 0 -0.453218,0.152391 1.8680935,1.8680935 0 0 1 -1.574752,0.862795 c -0.05452,0 -0.100276,-0.02669 -0.153521,-0.03149 L 76.806162,32.613278 A 1.8731779,1.8731779 0 0 1 76.329217,30.17912 0.38245991,0.38245991 0 0 0 76.222586,29.673787 l -1.673192,-1.204721 a 0.38302485,0.38302485 0 0 0 -0.470589,0.01737 1.8601845,1.8601845 0 0 1 -1.187349,0.429208 1.9151242,1.9151242 0 0 1 -1.304431,-3.287913 0.38373101,0.38373101 0 0 0 0.03686,-0.511971 l -1.176331,-1.520517 a 0.38429595,0.38429595 0 0 0 -0.280913,-0.148295 0.37850538,0.37850538 0 0 0 -0.29659,0.115529 1.8521342,1.8521342 0 0 1 -1.333243,0.55759 1.9010009,1.9010009 0 0 1 -1.884476,-1.906651 0.38415471,0.38415471 0 0 0 -0.05028,-0.193913 v -0.0021 h -0.002 v -0.0023 l -0.0023,-0.0021 a 0.22597336,0.22597336 0 0 0 -0.03277,-0.04802 l -0.0023,-0.0021 A 0.41324878,0.41324878 0 0 0 66.4319,21.861039 h -0.0023 a 0.38669691,0.38669691 0 0 0 -0.138974,-0.03474 h -0.0023 a 0.46804732,0.46804732 0 0 0 -0.191653,0.04124 h -0.0042 v 0.0023 h -0.0045 a 0.61309397,0.61309397 0 0 0 -0.06087,0.04124 l -2.427248,1.954105 a 0.37935278,0.37935278 0 0 0 -0.143775,0.309301 0.38627321,0.38627321 0 0 0 0.161429,0.302945 3.132132,3.132132 0 0 1 1.263333,1.999865 2.368907,2.368907 0 0 1 -0.974511,1.864281 0.38260115,0.38260115 0 0 0 -0.07598,0.481323 0.37243235,0.37243235 0 0 0 0.0346,0.05028 l 0.06751,0.08714 c 2.422575,3.143714 2.71168,3.287489 2.851783,3.357117 a 0.42073415,0.42073415 0 0 0 0.252667,0.03263 0.44036559,0.44036559 0 0 0 0.372574,-0.261281 1.8272771,1.8272771 0 0 1 1.729684,-1.261497 c 0.04576,0 0.08474,0.02316 0.129229,0.02669 a 1.4246208,1.4246208 0 0 0 -1.425327,1.169413 1.4524438,1.4524438 0 0 0 1.167576,1.683925 1.4134634,1.4134634 0 0 0 0.250548,0.02401 1.4335185,1.4335185 0 0 0 0.963494,-2.499831 1.8237463,1.8237463 0 0 1 0.735967,1.443405 1.8541114,1.8541114 0 0 1 -0.560132,1.326746 0.38712061,0.38712061 0 0 0 0.06539,0.603349 l 2.385432,1.482951 a 0.39771311,0.39771311 0 0 0 0.370455,0.01963 0.38952158,0.38952158 0 0 0 0.213545,-0.302804 1.8137187,1.8137187 0 0 1 0.907283,-1.352027 1.4445347,1.4445347 0 0 0 0.643883,2.552228 1.2452545,1.2452545 0 0 0 0.25422,0.02401 1.445947,1.445947 0 0 0 0.821978,-2.632166 1.8327852,1.8327852 0 0 1 1.005864,1.623478 1.8912558,1.8912558 0 0 1 -0.38133,1.130855 0.38133005,0.38133005 0 0 0 0.193772,0.594593 l 2.605755,0.808278 a 0.37779921,0.37779921 0 0 0 0.341785,-0.05649 0.38260115,0.38260115 0 0 0 0.155356,-0.309443 1.8195093,1.8195093 0 0 1 1.328865,-1.74409 1.438038,1.438038 0 0 0 -0.782292,1.027472 1.4534324,1.4534324 0 0 0 1.169978,1.679689 1.4226435,1.4226435 0 0 0 1.503146,-2.102118 1.7839184,1.7839184 0 0 1 0.174282,2.067374 0.37497455,0.37497455 0 0 0 -0.03037,0.326532 0.38415471,0.38415471 0 0 0 0.235153,0.233176 5.2670153,5.2670153 0 0 0 1.315024,0.22103 1.1016201,1.1016201 0 0 0 -0.142928,0.369325 l 8.47e-4,0.0068 c -0.308877,0.01059 -0.624957,0.01229 -0.949088,0.009 A 1.0963945,1.0963945 0 0 0 82.929188,39.382011 1.0704076,1.0704076 0 0 0 81.704271,40.17433 C 81.42703,40.1499 81.146823,40.12221 80.861531,40.08818 a 1.1038799,1.1038799 0 0 0 -0.176118,-0.433869 1.0697014,1.0697014 0 0 0 -0.697269,-0.444461 1.0536008,1.0536008 0 0 0 -1.138482,0.55307 c -0.388391,-0.08036 -0.7902,-0.180638 -1.200483,-0.289953 0.0051,-0.02062 0.01779,-0.03714 0.02133,-0.05819 a 1.0794465,1.0794465 0 0 0 -2.068504,-0.590496 q -0.4237,-0.156204 -0.836948,-0.32399 a 1.0592501,1.0592501 0 0 0 0.04505,-0.12259 1.0874968,1.0874968 0 0 0 -2.001276,-0.761954 C 72.374542,37.401936 71.933188,37.171584 71.474462,36.91807 a 1.0812825,1.0812825 0 0 0 0.04237,-0.115529 1.1006315,1.1006315 0 0 0 -0.884403,-1.274348 1.0656056,1.0656056 0 0 0 -0.950925,0.324836 q -0.535698,-0.337688 -1.042302,-0.68258 A 1.1401768,1.1401768 0 0 0 68.75007,34.873011 1.1102354,1.1102354 0 0 0 67.858888,33.6029 1.0531771,1.0531771 0 0 0 66.909094,33.928584 q -0.731307,-0.553776 -1.379991,-1.082271 a 1.0814238,1.0814238 0 0 0 -0.05791,-1.160656 1.0752095,1.0752095 0 0 0 -0.706167,-0.448699 1.0225295,1.0225295 0 0 0 -0.862371,0.213545 c -0.697688,-0.630184 -1.235081,-1.148651 -1.629122,-1.545941 a 1.1016201,1.1016201 0 0 0 -0.04435,-1.203449 1.0860845,1.0860845 0 1 0 -1.678275,1.368692 0.64190558,0.64190558 0 0 0 -0.08403,0.20267 43.027588,43.027588 0 0 1 -3.784207,-4.662679 l 11.5221,-9.293156 z M 95.84004,38.124909 c 0.01,-0.0346 0.0299,-0.06341 0.0364,-0.09886 a 1.0769043,1.0769043 0 0 0 -0.058,-0.546856 c 2.14548,-1.026625 4.89162,-1.78646 6.47188,-0.930304 a 2.9144914,2.9144914 0 0 1 1.37618,2.236289 c -0.21948,-0.02274 -0.42201,-0.0298 -0.63358,-0.04562 a 2.5482733,2.5482733 0 0 0 -1.32646,-1.955235 c -1.60145,-0.765343 -4.13673,0.35379 -5.8657,1.341011 z m 5.80158,0.561544 c -2.87,0.01102 -4.90334,0.789918 -6.03306,2.362834 l -0.015,-1.179157 c 1.83942,-1.168706 4.38798,-2.382748 5.52688,-1.851146 a 0.99781362,0.99781362 0 0 1 0.52186,0.667893 z m 0.98186,-2.75405 a 6.8676129,6.8676129 0 0 0 -5.13948,0.115811 2.6372504,2.6372504 0 0 0 0.7104,-2.143922 l 0.94118,-0.444462 a 2.6453007,2.6453007 0 0 0 4.93229,0.328933 l 0.88214,0.649673 a 2.7153524,2.7153524 0 0 0 -0.54657,1.625314 2.6693103,2.6693103 0 0 0 2.65335,2.67962 2.5975638,2.5975638 0 0 0 1.1567,-0.268343 2.9623695,2.9623695 0 0 1 -0.11171,1.470804 8.4881244,8.4881244 0 0 0 -2.46085,-0.882567 c -0.43204,-0.0774 -0.83455,-0.127111 -1.24173,-0.182192 a 3.6470688,3.6470688 0 0 0 -1.77502,-2.948811 z m -1.12111,23.844144 a 3.0639163,3.0639163 0 0 0 2.99104,-2.77114 c 0.27879,-0.01299 0.69501,-0.037 1.13071,-0.08714 l -7.08892,8.491938 c -0.0829,-0.03263 -0.16779,-0.06087 -0.25281,-0.08474 l 0.33981,-7.657672 a 3.0393417,3.0393417 0 0 0 2.88017,2.108755 z m -2.7823,-4.291658 0.0609,-1.40739 a 5.3736465,5.3736465 0 0 0 0.45322,0.546714 3.1716774,3.1716774 0 0 0 -0.51381,0.860676 z m 5.4026,0.766756 c -0.20888,0.0044 -0.29461,0.150837 -0.29461,0.360004 a 2.3535126,2.3535126 0 0 1 -2.32598,2.398001 2.2769641,2.2769641 0 0 1 -2.26157,-2.289675 2.6847048,2.6847048 0 0 1 0.78597,-1.910323 c 0.0847,-0.07415 0.13756,-0.08954 0.13544,-0.200692 a 0.38782678,0.38782678 0 0 0 -0.14123,-0.291788 4.7960021,4.7960021 0 0 1 -1.16984,-1.647205 l -0.006,-0.01299 0.0203,-0.451946 a 7.2335485,7.2335485 0 0 0 2.13262,2.476385 1.9207736,1.9207736 0 0 0 -1.37222,1.640849 1.9881419,1.9881419 0 0 0 1.70709,2.217364 c 0,0 0.16637,0.01412 0.24857,0.01412 a 1.9437946,1.9437946 0 0 0 1.20203,-0.414802 1.9733124,1.9733124 0 0 0 0.74727,-1.326322 1.9415349,1.9415349 0 0 0 -0.18643,-1.038772 7.5055639,7.5055639 0 0 0 1.43719,0.240097 h 0.002 a 6.4141126,6.4141126 0 0 0 1.82488,-0.27484 3.7789808,3.7789808 0 0 1 -0.41989,0.320458 15.229475,15.229475 0 0 1 -2.06582,0.192078 z m -1.08481,-4.431197 a 1.4311175,1.4311175 0 0 1 0.48796,0.08714 c 0.0698,0.03488 0.13939,0.06765 0.21185,0.0959 a 1.4648723,1.4648723 0 1 1 -2.05212,0.766756 1.4547035,1.4547035 0 0 1 1.35259,-0.949795 z m -0.137,-3.182976 a 1.9923789,1.9923789 0 0 0 0.0873,-0.197726 2.0163885,2.0163885 0 0 1 2.5117,-0.97451 2.3063406,2.3063406 0 0 0 0.23543,0.106772 2.0730231,2.0730231 0 0 1 0.94994,2.540223 2.2377012,2.2377012 0 0 0 -0.10918,0.24391 1.9875769,1.9875769 0 0 1 -2.51395,0.949935 c -0.0719,-0.03714 -0.14378,-0.06977 -0.22004,-0.100134 a 2.0652553,2.0652553 0 0 1 -0.94118,-2.56847 z m -1.18424,6.711127 a 1.255282,1.255282 0 0 1 0.60151,2.228803 1.2133357,1.2133357 0 0 1 -0.9022,0.249983 1.2463843,1.2463843 0 0 1 -1.06857,-1.394679 1.2319785,1.2319785 0 0 1 0.46678,-0.832006 1.1922919,1.1922919 0 0 1 0.90248,-0.252101 z m 2.45209,-0.13389 a 2.2282386,2.2282386 0 0 0 0.94358,-1.135092 2.2597336,2.2597336 0 0 0 -0.13742,-1.87572 2.782297,2.782297 0 0 0 1.50767,-0.568606 2.2086071,2.2086071 0 0 0 2.16087,1.753695 2.0276872,2.0276872 0 0 0 0.3987,-0.037 5.8210738,5.8210738 0 0 1 -4.8734,1.862726 z m 1.88024,-8.343783 c -0.072,-0.03715 -0.14815,-0.07203 -0.22442,-0.102536 a 1.4631775,1.4631775 0 1 1 2.063,-0.76266 1.4655785,1.4655785 0 0 1 -1.83858,0.865196 z m -1.59241,-2.172169 a 2.2552141,2.2552141 0 0 0 0.13926,1.873601 2.7594172,2.7594172 0 0 0 -1.50752,0.570865 2.2151039,2.2151039 0 0 0 -2.16709,-1.754118 2.1093201,2.1093201 0 0 0 -0.39008,0.03488 5.8456484,5.8456484 0 0 1 4.87368,-1.860467 2.2416557,2.2416557 0 0 0 -0.94825,1.135234 z m -3.53535,1.457387 a 1.4537149,1.4537149 0 0 1 0.51423,0.0959 1.4726401,1.4726401 0 0 1 0.84952,1.880098 q -0.0456,0.09463 -0.0847,0.189536 a 1.4547035,1.4547035 0 0 1 -1.7842,0.67792 1.4739112,1.4739112 0 0 1 -0.8474,-1.892527 1.4547035,1.4547035 0 0 1 1.35259,-0.950924 z m -0.77989,3.562046 a 2.1891169,2.1891169 0 0 0 0.78215,0.143634 2.2145389,2.2145389 0 0 0 1.07337,-0.276535 2.8345533,2.8345533 0 0 0 0.56875,1.52066 2.2372775,2.2372775 0 0 0 -1.70384,2.590219 5.9285524,5.9285524 0 0 1 -1.8342,-4.917462 2.2151039,2.2151039 0 0 0 1.11321,0.939484 z m -0.7974,-6.10001 -2.27683,5.467991 -1.18395,1.493119 3.47518,-7.666853 a 1.1298668,1.1298668 0 0 1 -0.015,0.705743 z m -1.15162,6.455777 -0.67481,15.164225 a 2.3405191,2.3405191 0 0 0 -0.55985,0.09138 l 0.62213,-13.74935 z m -5.038075,29.533871 a 1.5801187,1.5801187 0 0 1 -1.087497,2.967171 c -0.06963,-0.03474 -0.139256,-0.06525 -0.213262,-0.09576 a 1.5811074,1.5811074 0 0 1 1.300618,-2.871415 z M 92.565827,77.25714 a 1.3936907,1.3936907 0 0 1 0.524964,-0.93214 1.3595122,1.3595122 0 0 1 0.836666,-0.28967 1.4891644,1.4891644 0 0 1 0.169483,0.01073 1.3982102,1.3982102 0 0 1 0.6645,2.487966 1.3006179,1.3006179 0 0 1 -1.00431,0.272298 1.384793,1.384793 0 0 1 -1.191303,-1.549188 z m -28.880949,-44.302925 0.01553,0.01483 c -0.03192,0.07895 -0.09618,0.141234 -0.09618,0.231199 v 0.135161 c -0.636533,-0.563946 -1.234657,-1.12549 -1.793658,-1.67856 l 8.47e-4,-1.221528 c 0.419746,0.421017 0.976064,0.95954 1.714714,1.62136 -0.0061,0.02443 -0.02203,0.04449 -0.02641,0.06963 a 1.105151,1.105151 0 0 0 0.185157,0.82791 z m -0.08474,2.148018 -0.0038,1.79437 c -0.507027,0.462963 -1.091027,1.016032 -1.788861,1.731662 l 0.0023,-5.10488 q 0.845847,0.79006 1.790557,1.578848 z m -0.01059,4.983136 -0.112987,53.871626 -1.6948,2.850371 0.02472,-54.92678 z m -0.120613,58.044648 -0.03022,14.683893 a 0.70870895,0.70870895 0 0 0 0.02613,0.19377 l -1.692823,3.54015 0.0089,-15.57874 z m -0.954034,20.160213 a 3.6024391,3.6024391 0 0 1 3.184953,-2.15678 2.6373916,2.6373916 0 0 1 0.270603,0.0342 l -1.795358,4.03928 q -0.871551,-0.8063 -1.680677,-1.64749 a 0.43245652,0.43245652 0 0 1 0.02062,-0.26919 z m 7.16053,-30.5999 0.01087,12.121493 a 0.66648018,0.66648018 0 0 0 0.01525,0.148154 l -1.899589,3.973603 0.04802,-13.173685 z M 67.86595,86.574586 68.035006,39.311834 a 11.358692,11.358692 0 0 0 1.601727,1.046539 l 0.03573,43.179696 z m 1.768241,-49.069691 v 0.230351 c -0.546573,-0.318057 -1.073373,-0.650803 -1.590287,-0.990045 l 0.0037,-1.025637 c 0.02825,-0.01088 0.05141,-0.03319 0.07909,-0.04647 0.399691,0.274699 0.815058,0.545302 1.240877,0.814069 a 1.0794465,1.0794465 0 0 0 0.318763,0.891465 c -0.0095,0.04647 -0.05169,0.07726 -0.05169,0.126545 z m -1.847897,-2.462263 a 0.67198828,0.67198828 0 0 0 -0.420028,-0.175976 h -0.0021 c -0.0085,0 -0.01314,0.0088 -0.02147,0.0088 a 0.38796801,0.38796801 0 0 1 -0.05649,-0.254926 0.40562218,0.40562218 0 0 1 0.437823,-0.324837 h 0.01525 a 0.39799558,0.39799558 0 0 1 0.320176,0.455478 0.39319365,0.39319365 0 0 1 -0.272721,0.291788 z m 3.294833,65.208148 -0.769581,6.14209 -0.653486,1.47278 -4.764225,5.32648 z M 70.058739,36.544225 a 0.40802315,0.40802315 0 0 1 0.437823,-0.322577 h 0.01285 A 0.39827805,0.39827805 0 0 1 70.823235,36.683623 0.37568071,0.37568071 0 0 1 70.62,36.945752 0.64105818,0.64105818 0 0 0 70.318043,36.82076 c -0.05466,0 -0.08869,0.0459 -0.13968,0.05791 a 0.37681058,0.37681058 0 0 1 -0.119201,-0.334158 z m 8.413129,48.248985 -0.811809,4.988503 -3.891968,4.849389 z M 76.212135,39.159161 a 0.40124395,0.40124395 0 0 1 0.435704,-0.322436 h 0.01737 a 0.39672448,0.39672448 0 0 1 0.313821,0.459715 0.38133005,0.38133005 0 0 1 -0.308313,0.300544 c -0.07062,-0.02514 -0.124003,-0.08474 -0.203799,-0.08474 h -0.002 c -0.02457,0 -0.03912,0.0233 -0.06299,0.02585 A 0.38020018,0.38020018 0 0 1 76.21157,39.158737 Z M 83.8828,36.629813 a 2.1872809,2.1872809 0 0 0 2.215528,-1.82191 l 0.662243,0.124285 a 2.5954453,2.5954453 0 0 0 -0.02175,0.346304 2.6803265,2.6803265 0 0 0 1.421937,2.368201 3.3031656,3.3031656 0 0 0 -1.034675,0.732154 3.1897552,3.1897552 0 0 1 -2.875652,0.675236 2.6277877,2.6277877 0 0 0 -0.368196,-2.424694 z m 2.840909,51.93235 a 2.3660823,2.3660823 0 0 0 -0.0959,1.324487 6.2990074,6.2990074 0 0 1 -2.008621,-5.367856 2.3303503,2.3303503 0 0 0 1.209099,1.052188 2.3162269,2.3162269 0 0 0 1.98447,-0.163407 3.0166031,3.0166031 0 0 0 0.629759,1.67305 2.3433438,2.3433438 0 0 0 -1.719375,1.481115 z m 0.355061,2.973668 a 1.5460815,1.5460815 0 0 1 1.032557,0.588237 1.5891577,1.5891577 0 0 1 0.324837,1.187208 1.5616172,1.5616172 0 0 1 -1.74734,1.379144 1.5911349,1.5911349 0 0 1 0.189677,-3.167582 1.5695262,1.5695262 0 0 1 0.199704,0.01257 z M 84.374999,80.366392 a 2.1749936,2.1749936 0 0 0 -0.965048,-1.551025 l 1.478572,-3.329435 z m 3.7537,3.518405 c -0.0435,0.08714 -0.08276,0.176542 -0.119766,0.27018 a 1.5692438,1.5692438 0 1 1 -1.361772,-2.372721 1.552437,1.552437 0 0 1 0.55081,0.102394 1.5959369,1.5959369 0 0 1 0.930163,1.999723 z m -2.72764,-5.941404 0.4237,-4.034896 2.231487,-2.503644 z M 86.50734,43.59982 c 0.498271,-0.05791 0.967872,-0.135302 1.431965,-0.21524 l 0.04237,9.363771 -1.521084,2.557736 z m -0.03037,-2.264112 a 1.0788816,1.0788816 0 0 0 0.360287,-0.489938 c 0.303228,-0.03432 0.600948,-0.07062 0.88977,-0.114541 a 1.0576966,1.0576966 0 0 0 0.201257,0.160865 l 0.0011,0.277241 c -0.477651,0.08983 -0.954314,0.174847 -1.423632,0.236001 -0.0013,-0.02726 -0.02472,-0.04406 -0.02881,-0.06963 z m 1.525321,15.537081 0.02189,4.731317 v 0.03488 l -1.601445,3.35062 0.02189,-5.498779 z m -1.571645,11.273246 1.230566,-2.573978 1.534077,-1.675875 -3.036517,6.836401 z m 2.910396,-17.683263 -0.03474,-7.351761 c 0.649674,-0.147024 1.258954,-0.302098 1.805951,-0.46607 l 0.0035,4.832864 z m 1.778551,1.168847 0.0023,3.530834 -1.74282,3.642691 -0.01963,-4.215533 z M 89.296275,40.871192 v -0.0038 c 0,-0.0637 -0.05169,-0.104795 -0.06822,-0.163265 a 1.0992192,1.0992192 0 0 0 0.2103,-0.308327 c 0.25069,-0.0596 0.496718,-0.119766 0.727211,-0.186287 0.337124,-0.09307 0.642188,-0.196173 0.945416,-0.298284 v 0.454065 q -0.917028,0.287692 -1.815131,0.505191 z m 1.793663,17.511946 -0.228939,1.816403 -1.006005,2.199144 -1.380274,1.506113 z m -0.992164,5.372093 -0.480194,3.80977 -0.701223,1.724459 -2.5422,2.85023 z M 88.71863,40.229004 c -0.03969,-0.0071 -0.06511,-0.04421 -0.106913,-0.04421 h -0.0021 a 0.63780981,0.63780981 0 0 0 -0.272298,0.113834 0.38302485,0.38302485 0 0 1 -0.197727,-0.12711 0.40293875,0.40293875 0 0 1 -0.06341,-0.305064 0.39545338,0.39545338 0 0 1 0.433727,-0.315798 h 0.01949 a 0.39248748,0.39248748 0 0 1 0.189817,0.67792 z m -2.746282,0.573407 c -0.05042,-0.012 -0.08403,-0.05734 -0.138268,-0.05762 h -0.0023 c -0.05367,0 -0.08757,0.04505 -0.137562,0.05649 a 0.38330731,0.38330731 0 0 1 -0.246028,-0.414096 0.40449232,0.40449232 0 0 1 0.437823,-0.320317 h 0.01525 a 0.39446475,0.39446475 0 0 1 0.313821,0.461974 0.37116125,0.37116125 0 0 1 -0.242639,0.273569 z m 5.410649,26.037922 a 2.4523759,2.4523759 0 0 0 2.028111,1.728837 2.5150835,2.5150835 0 0 0 0.712382,-0.01525 l -6.938089,8.623002 z m 2.123867,0.966318 a 1.7127368,1.7127368 0 0 1 -0.819153,-3.043437 1.6630227,1.6630227 0 0 1 1.232967,-0.339808 1.7117482,1.7117482 0 0 1 0.817172,3.043297 1.6433913,1.6433913 0 0 1 -1.231409,0.339948 z m -3.090468,-2.296736 0.806725,-3.91852 1.836034,-2.362692 z m 1.29737,-8.413836 0.5107,-1.068289 1.732227,-2.304081 -2.495029,5.365031 z m -0.2336,-18.215713 a 0.37624565,0.37624565 0 0 0 0.04237,-0.09632 0.39234625,0.39234625 0 0 1 0.385567,-0.244051 h 0.01525 a 0.39799558,0.39799558 0 0 1 0.318058,0.459715 0.38344855,0.38344855 0 0 1 -0.210014,0.265518 c -0.08036,-0.03291 -0.144482,-0.09773 -0.236566,-0.09773 -0.06002,0 -0.09802,0.04901 -0.153238,0.06327 -0.03277,-0.02472 -0.0774,-0.03036 -0.101688,-0.06539 a 0.38542581,0.38542581 0 0 1 -0.0596,-0.285009 z m 2.826364,7.386505 0.0282,2.172168 -1.847469,3.86471 -0.002,-2.971691 z m -1.824455,-1.086367 -0.0021,-2.980024 c 0.384155,-0.137703 0.72834,-0.269756 1.013914,-0.386979 l 0.02217,1.627996 z m 1.734765,-6.029393 c -0.0806,0.0579 -0.18176,0.128522 -0.2134,0.153238 -0.5131,0.220606 -1.019421,0.41113 -1.525319,0.597699 v -0.05099 c 0,-0.0092 -0.0095,-0.01412 -0.0099,-0.02401 a 1.0904627,1.0904627 0 0 0 0.440084,-0.63555 c 0.399125,-0.188405 0.772687,-0.392911 1.129165,-0.603348 a 1.0883442,1.0883442 0 0 0 0.19914,0.177671 c -0.002,0.02316 -0.0247,0.03743 -0.0243,0.06073 z m -2.602079,21.193617 2.765919,-6.22839 -0.35704,2.598693 -0.562818,1.385923 z m 1.564725,-6.539104 2.033764,-4.307617 -0.6436,3.106286 z M 95.01284,38.151602 a 0.5191738,0.5191738 0 0 0 -0.12471,-0.01666 c -0.0691,7.06e-4 -0.11299,0.05565 -0.17626,0.07556 a 0.39361735,0.39361735 0 0 1 -0.28995,-0.450394 0.39969038,0.39969038 0 0 1 0.43358,-0.320317 h 0.0154 a 0.38683815,0.38683815 0 0 1 0.25054,0.161289 0.39545338,0.39545338 0 0 1 0.0631,0.300544 0.38358978,0.38358978 0 0 1 -0.17174,0.249983 z m -1.283674,-0.511264 a 1.0781754,1.0781754 0 0 0 0.0069,0.31721 c -0.288116,0.171316 -0.6001,0.332745 -0.920135,0.490362 a 1.0825536,1.0825536 0 0 0 -0.768451,-0.598406 1.0698426,1.0698426 0 0 0 -0.940755,0.310713 3.8199384,3.8199384 0 0 0 -0.67566,-0.421722 2.6803265,2.6803265 0 0 0 1.596784,-2.172169 l 1.076057,-0.328933 a 2.6486903,2.6486903 0 0 0 1.607514,1.517129 1.0848134,1.0848134 0 0 0 -0.982274,0.885816 z m -2.941608,1.25048 a 1.0551544,1.0551544 0 0 0 0.04237,0.371443 c -0.274276,0.09251 -0.545726,0.186287 -0.854321,0.26905 -0.151826,0.04364 -0.313538,0.08163 -0.471296,0.121884 a 1.0898978,1.0898978 0 0 0 -0.85545,-0.795144 1.1050097,1.1050097 0 0 0 -1.265875,0.888923 1.091875,1.091875 0 0 0 0.0059,0.320459 c -0.172869,0.02373 -0.34701,0.04632 -0.526094,0.06765 a 1.0850958,1.0850958 0 0 0 -0.325684,-0.491915 3.1582602,3.1582602 0 0 0 1.133539,-0.723963 2.1148282,2.1148282 0 0 1 1.503005,-0.7169 h 0.0089 a 2.5861239,2.5861239 0 0 1 1.604976,0.688513 z m -5.648628,4.816057 -0.0548,13.914874 -1.759061,2.957992 0.0071,-16.832332 c 0.618603,0.0064 1.221245,-0.0042 1.806799,-0.04082 z m -1.80581,-2.093643 v -0.238543 a 1.0733735,1.0733735 0 0 0 0.363676,-0.385144 c 0.149142,0.0027 0.298991,0.0059 0.444179,0.0059 0.255915,0 0.503638,-0.0068 0.749808,-0.01412 a 1.0757744,1.0757744 0 0 0 0.29659,0.349411 c -0.0061,0.03601 -0.03983,0.05847 -0.04025,0.09618 v 0.112139 c -0.611964,0.04632 -1.21729,0.07217 -1.814001,0.07387 z m 1.734204,20.196369 -0.02387,5.934484 a 0.68102722,0.68102722 0 0 0 0.0086,0.112987 l -1.729685,3.617833 0.0021,-6.736831 z m 0.374975,8.404938 -0.294472,2.795008 -0.448698,1.008688 -2.320323,2.603496 z M 82.973116,40.779107 a 0.64162311,0.64162311 0 0 0 -0.323848,-0.134595 c -0.07245,0 -0.120472,0.05649 -0.186287,0.07683 a 0.38133005,0.38133005 0 0 1 -0.103524,-0.324837 0.39827805,0.39827805 0 0 1 0.431327,-0.322294 h 0.01511 a 0.39997285,0.39997285 0 0 1 0.318199,0.463951 0.38740308,0.38740308 0 0 1 -0.150979,0.240944 z m 0.706167,35.536995 -0.99739,2.248717 a 2.0902536,2.0902536 0 0 0 -0.926067,0.102394 2.485707,2.485707 0 0 0 -0.263541,0.102253 z m -1.715138,-32.618549 -0.0071,19.182738 -1.638307,2.75405 0.01144,-22.095958 c 0.554764,0.07853 1.09597,0.122309 1.633928,0.15917 z m -1.633222,-2.265524 v -0.200975 a 1.0651819,1.0651819 0 0 0 0.430903,-0.446015 q 0.506321,0.05932 0.993294,0.102677 a 1.0831186,1.0831186 0 0 0 0.244475,0.357038 c -0.0044,0.03149 -0.03474,0.05099 -0.03474,0.08389 v 0.24391 q -0.827768,-0.04364 -1.633928,-0.140527 z m 1.623336,25.609985 -0.0023,7.086807 a 0.70418949,0.70418949 0 0 0 0.01963,0.167785 l -1.660057,3.474341 0.0044,-7.97347 z m -1.62489,13.947076 a 3.0990834,3.0990834 0 0 1 1.664576,-1.592547 1.22986,1.22986 0 0 1 0.949654,0.037 c 0.795143,0.409576 0.934682,1.812588 0.307182,3.063069 A 3.1021905,3.1021905 0 0 1 81.586346,84.08704 1.2631911,1.2631911 0 0 1 80.634574,84.0523 c -0.79133,-0.409859 -0.930869,-1.81273 -0.305205,-3.06321 z m 3.328588,9.008287 a 4.8160573,4.8160573 0 0 0 0.732295,0.819153 3.6330867,3.6330867 0 0 0 -0.780032,1.686326 z m -9.31095,7.317723 -0.01314,-2.16313 2.180926,-2.714646 z m 2.808143,-4.433456 -0.633714,3.895498 -1.627432,1.193705 z m -0.808138,4.978193 -0.505474,3.095693 -1.466143,1.64043 -0.01737,-3.278736 z m 0.0685,5.839293 a 2.5900784,2.5900784 0 0 0 2.027263,1.56769 2.8568682,2.8568682 0 0 0 0.331192,0.0196 2.5869713,2.5869713 0 0 0 1.644663,-0.59036 c 0.0027,0.0215 0.01497,0.0394 0.01794,0.0609 -0.0095,0.01 -0.02415,0.007 -0.03319,0.0175 l -8.698279,10.52415 z m 2.121042,0.82268 a 1.8851828,1.8851828 0 0 1 -1.621076,-2.05395 l 0.384719,-0.94711 a 1.827842,1.827842 0 0 1 1.458517,-0.76775 1.7360403,1.7360403 0 0 1 0.237272,0.0152 1.8839117,1.8839117 0 0 1 1.625172,2.10876 1.8570773,1.8570773 0 0 1 -2.085451,1.6448 z m 0.553352,-4.49884 a 2.5311841,2.5311841 0 0 0 -1.260507,0.19504 l 3.541285,-8.721018 -0.112987,10.459878 a 2.5978462,2.5978462 0 0 0 -2.168214,-1.9339 z m -2.091383,-1.391575 1.385358,-8.511993 4.203669,-5.248231 z m 2.616348,-11.283132 1.09357,-2.459438 a 2.001559,2.001559 0 0 0 0.886662,-0.0089 z m 2.543754,2.20903 0.776783,-1.911593 -0.264813,14.16401 a 2.5046322,2.5046322 0 0 0 -0.644871,0.1651 z m -2.17683,-48.937356 a 0.64600135,0.64600135 0 0 0 -0.334299,-0.138691 c -0.05423,0 -0.08841,0.04562 -0.139115,0.05762 -0.0076,-0.0092 -0.02175,-0.0085 -0.02825,-0.01836 a 0.39545338,0.39545338 0 0 1 0.368195,-0.618743 h 0.01737 a 0.39291118,0.39291118 0 0 1 0.248571,0.15691 0.40675205,0.40675205 0 0 1 0.06511,0.304923 0.37398591,0.37398591 0 0 1 -0.198009,0.256197 z m 0.03178,43.942215 -1.14399,2.574826 0.542478,-3.337486 a 1.9984519,1.9984519 0 0 0 0.601089,0.762519 z M 78.96336,41.165239 v 0.06327 q -0.923383,-0.163407 -1.816543,-0.386697 l 0.002,-0.643883 c 0,-0.01299 -0.01328,-0.02062 -0.01412,-0.03361 a 1.1929981,1.1929981 0 0 0 0.112986,-0.06596 c 0.51409,0.141233 1.002757,0.258457 1.48168,0.357603 a 1.0826949,1.0826949 0 0 0 0.173152,0.465363 1.0301561,1.0301561 0 0 0 0.115952,0.111575 c -0.01144,0.04858 -0.0555,0.0805 -0.0555,0.132194 z m -1.82191,1.799172 c 0.579057,0.124992 1.191162,0.238543 1.820922,0.347434 l -0.01314,24.627424 -1.885324,3.170548 z m 1.803832,29.138418 -0.0042,8.535437 -1.915124,4.006508 0.02683,-9.356568 z m -3.293561,15.415337 -1.605682,3.359377 0.02387,-10.576825 1.605682,-2.701511 -0.02613,9.866562 a 0.40435108,0.40435108 0 0 0 0.0023,0.0524 z m 0.128522,-47.324612 -8.47e-4,0.262694 q -0.820142,-0.25422 -1.611049,-0.55307 l 0.0016,-0.716194 a 1.1016201,1.1016201 0 0 0 0.16948,-0.09886 q 0.607304,0.25422 1.234239,0.480193 a 1.0937111,1.0937111 0 0 0 0.282466,0.440507 c -0.01977,0.06497 -0.07584,0.11228 -0.07584,0.184733 z m -0.0069,2.458166 -0.08474,30.769663 -1.608225,2.704619 0.08262,-33.926934 c 0.513807,0.156062 1.041172,0.308877 1.610343,0.452652 z M 73.824302,38.553694 A 0.64204681,0.64204681 0 0 0 73.488167,38.41359 h -0.0021 c -0.01878,0 -0.03008,0.01864 -0.0483,0.01991 a 0.39079268,0.39079268 0 0 1 -0.08686,-0.311702 0.40237382,0.40237382 0 0 1 0.433586,-0.324837 h 0.01539 a 0.40138518,0.40138518 0 0 1 0.317916,0.459715 0.38514335,0.38514335 0 0 1 -0.293341,0.296731 z m -1.126759,44.056331 -0.02627,10.663965 a 0.70531935,0.70531935 0 0 0 0.07627,0.318058 l -1.6948,3.544957 -0.0085,-11.744683 z M 71.04031,81.237378 71.005426,41.036011 q 0.814634,0.364947 1.790133,0.712522 l -0.08813,36.685363 z m 0.689784,20.007822 1.29172,-0.94753 -1.631527,3.67079 z m 1.867105,-0.35506 0.01525,2.55759 -2.285579,2.55336 z m -0.02613,-4.788517 0.01525,2.830034 -1.723047,1.263473 0.268344,-2.140108 0.188264,-0.394041 z M 72.801632,39.095465 v 0.248712 c -0.612388,-0.26905 -1.214607,-0.55081 -1.798042,-0.85305 l -8.48e-4,-0.951065 c 0.0233,-0.01412 0.0483,-0.02542 0.07062,-0.04138 0.548409,0.305488 1.075633,0.582729 1.594242,0.833277 a 1.0856608,1.0856608 0 0 0 0.225974,0.54389 c -0.02909,0.07528 -0.09194,0.133607 -0.09194,0.219618 z m -6.339542,67.641875 -1.649323,3.45302 0.02825,-14.37191 1.631951,-2.742751 -0.04802,13.432841 a 0.71788912,0.71788912 0 0 0 0.03757,0.2288 z m 0.217782,-71.188527 -9.89e-4,0.25422 C 66.087116,35.374248 65.514697,34.938544 64.96996,34.496201 l 0.0024,-1.158114 c 0.01059,-0.0038 0.01864,-0.01215 0.02825,-0.01681 0.49347,0.405764 1.02592,0.825086 1.594384,1.251328 a 1.100349,1.100349 0 0 0 0.18205,0.743029 c -0.03192,0.07994 -0.09604,0.142222 -0.09674,0.233176 z m -0.731165,2.162141 a 6.3679293,6.3679293 0 0 1 0.721702,0.446015 l -0.183603,50.736528 -1.63633,2.751649 0.109598,-52.939627 z m -1.273784,-5.03285 a 0.65376918,0.65376918 0 0 0 -0.384437,-0.160159 h -0.0021 c -0.01328,0 -0.02104,0.01328 -0.03418,0.01412 a 0.38867418,0.38867418 0 0 1 0.369608,-0.60462 h 0.01963 a 0.38923911,0.38923911 0 0 1 0.252526,0.158888 0.39446475,0.39446475 0 0 1 0.06341,0.300685 0.37610441,0.37610441 0 0 1 -0.284444,0.291083 z m 3.968658,77.474686 -2.212562,4.9789 a 3.732515,3.732515 0 0 0 -0.7306,-0.0946 4.3030977,4.3030977 0 0 0 -1.853264,0.47426 z m -1.918656,6.20862 a 2.2738569,2.2738569 0 0 1 0.258599,0.10691 c 1.403012,0.83003 1.664435,3.02169 0.586259,4.88441 -0.233176,0.40082 -0.579056,0.87791 -0.910814,0.87791 a 0.71153362,0.71153362 0 0 1 -0.185015,-0.0528 Q 65.598307,121.4793 64.77647,120.747 Z m 0.81647,-0.83413 a 3.4473649,3.4473649 0 0 0 -0.376104,-0.15719 l 2.81817,-6.34364 -1.025354,8.18433 a 3.4790011,3.4790011 0 0 0 -1.417135,-1.68293 z m 3.396239,-7.93873 4.437975,-4.96209 -5.517563,13.58439 z m -0.194337,10.0787 9.972063,-12.06542 a 2.6652146,2.6652146 0 0 0 0.474544,0.65362 l -11.120996,13.07171 z m 10.420338,-13.52733 a 1.8751552,1.8751552 0 0 1 1.847473,-1.65568 1.7679591,1.7679591 0 0 1 0.237696,0.0152 1.8925269,1.8925269 0 1 1 -2.085169,1.64043 z m 2.589089,-2.26355 a 2.5139536,2.5139536 0 0 0 -0.315091,-0.0935 l 0.153238,-8.197888 a 3.3394626,3.3394626 0 0 0 3.289607,2.880031 3.4144575,3.4144575 0 0 0 3.287348,-3.091457 16.284205,16.284205 0 0 0 1.86428,-0.252667 z m 6.025015,-9.243438 a 0.38387225,0.38387225 0 0 0 -0.359439,0.383307 2.649114,2.649114 0 0 1 -2.537822,2.681881 2.5753901,2.5753901 0 0 1 -2.556323,-2.590361 2.782297,2.782297 0 0 1 0.893442,-2.045624 0.38358978,0.38358978 0 0 0 -0.05254,-0.614365 4.0238794,4.0238794 0 0 1 -1.33522,-1.692682 0.38034141,0.38034141 0 0 0 -0.146035,-0.167785 l 0.05014,-2.688236 c 8.48e-4,-0.04421 -0.0315,-0.07415 -0.04449,-0.113693 l 0.142928,-0.353083 a 7.0546059,7.0546059 0 0 0 2.67044,5.352744 2.3607155,2.3607155 0 0 0 0.0894,4.666491 2.655187,2.655187 0 0 0 0.289811,0.01737 2.3639638,2.3639638 0 0 0 2.065396,-3.458664 6.6615534,6.6615534 0 0 0 4.416791,-0.297437 l -0.306053,0.323565 a 0.37469208,0.37469208 0 0 0 -0.235295,0.0435 10.686421,10.686421 0 0 1 -3.044991,0.553635 z m -1.422502,-1.765417 a 1.5867567,1.5867567 0 0 1 -0.912791,-2.039127 1.5561091,1.5561091 0 0 1 1.964979,-0.945416 c 0.0894,0.04576 0.180638,0.08714 0.274417,0.124003 a 1.6029985,1.6029985 0 0 1 0.684134,1.936874 1.5787064,1.5787064 0 0 1 -2.011163,0.924937 z m 1.651159,-3.557527 a 2.3902332,2.3902332 0 0 0 -0.282467,-0.128522 2.2293684,2.2293684 0 0 1 -1.015326,-2.707867 2.5248286,2.5248286 0 0 0 0.12711,-0.281196 2.1244321,2.1244321 0 0 1 2.699251,-1.015185 c 0.07175,0.037 0.145612,0.06977 0.222161,0.100276 a 2.2237191,2.2237191 0 0 1 1.032698,2.751508 2.2508359,2.2508359 0 0 0 -0.102394,0.225973 2.2023929,2.2023929 0 0 1 -2.681457,1.056284 z m 0.416215,-7.049804 a 2.3800644,2.3800644 0 0 0 0.165525,2.006503 2.9218356,2.9218356 0 0 0 -1.655537,0.631736 2.3641051,2.3641051 0 0 0 -1.461765,-1.734204 2.3245597,2.3245597 0 0 0 -0.823815,-0.150272 2.2265438,2.2265438 0 0 0 -0.483441,0.0524 6.2268372,6.2268372 0 0 1 5.309103,-2.031359 2.350123,2.350123 0 0 0 -1.050494,1.226471 z m -4.449557,-0.09745 0.233176,-0.574537 c 0.01087,-0.01102 0.02825,-0.0082 0.03799,-0.0209 l 9.02142,-11.208562 a 2.5186143,2.5186143 0 0 0 0.32484,0.719019 l -7.834781,9.844812 a 7.0064453,7.0064453 0 0 0 -1.783071,1.241442 z M 94.01714,63.659617 a 2.3971537,2.3971537 0 0 0 -1.47843,0.334865 l 4.17726,-10.286449 -0.54248,11.990429 v 0.02401 l -0.037,0.02627 A 2.4591551,2.4591551 0 0 0 94.01672,63.66089 Z m 0.63018,-8.355506 0.25662,-2.289251 1.83604,-2.988074 z m 0.51466,-3.979532 c 0,0 0.72382,-3.133968 0.72029,-3.166169 l 2.64106,-5.303877 0.0213,-0.0032 0.19674,-0.0733 z m 0.22851,-14.420772 c -0.0321,-0.02048 -0.0729,-0.02486 -0.10691,-0.04237 0.05,0.0052 0.0972,0.01991 0.14773,0.0226 z m -11.987459,-1.80581 a 0.71082745,0.71082745 0 0 1 -0.115671,-0.0088 0.69345575,0.69345575 0 0 1 -0.555329,-0.793166 0.68399312,0.68399312 0 0 1 0.66648,-0.568464 0.71901899,0.71901899 0 0 1 0.117789,0.0088 0.68851258,0.68851258 0 0 1 0.55081,0.795144 0.67792008,0.67792008 0 0 1 -0.664079,0.566486 z M 75.24624,33.41167 a 2.5943154,2.5943154 0 0 0 -2.444608,1.742961 l -1.553567,-0.967308 a 2.6166303,2.6166303 0 0 0 -2.108897,-4.126274 2.5811807,2.5811807 0 0 0 -2.254649,1.326746 c -0.300544,-0.324836 -0.923807,-1.05925 -2.207053,-2.718742 a 2.9201408,2.9201408 0 0 0 0.969567,-2.237279 3.5347883,3.5347883 0 0 0 -1.202461,-2.261428 l 1.538031,-1.237487 a 2.6609776,2.6609776 0 0 0 2.553781,1.954105 2.6269403,2.6269403 0 0 0 1.551025,-0.500955 l 0.732013,0.945416 a 2.6633785,2.6633785 0 0 0 3.50753,3.923605 l 1.183112,0.851779 a 2.6821626,2.6821626 0 0 0 2.448845,3.7102 2.6379565,2.6379565 0 0 0 2.036867,-0.960386 l 1.058544,0.383448 a 2.7218491,2.7218491 0 0 0 -0.09788,0.725516 2.6669094,2.6669094 0 0 0 0.55081,1.62955 2.6051904,2.6051904 0 0 0 -2.241938,2.089265 L 77.57715,37.159438 a 2.612817,2.612817 0 0 0 -2.331339,-3.747203 z m 0.658288,2.283037 a 0.66619771,0.66619771 0 0 1 -0.782291,0.557872 0.68272202,0.68272202 0 0 1 -0.544737,-0.795144 0.67453048,0.67453048 0 0 1 0.660266,-0.566487 0.65857111,0.65857111 0 0 1 0.115387,0.0088 0.68935998,0.68935998 0 0 1 0.551375,0.795003 z m -5.980385,-3.293845 a 0.67876748,0.67876748 0 0 1 -0.662243,0.562109 0.69486808,0.69486808 0 0 1 -0.115529,-0.0088 0.68455805,0.68455805 0 0 1 -0.544596,-0.799522 0.66690388,0.66690388 0 0 1 0.660125,-0.561968 0.71817159,0.71817159 0 0 1 0.117648,0.0086 0.67792008,0.67792008 0 0 1 0.544595,0.799522 z m 12.692359,5.442004 a 0.67410678,0.67410678 0 1 1 -0.662243,-0.806019 0.72254982,0.72254982 0 0 1 0.115246,0.0086 0.68667655,0.68667655 0 0 1 0.546997,0.797403 z M 61.722016,29.409822 a 0.38528458,0.38528458 0 0 1 -0.09307,0.162983 c -0.04336,0.01667 -0.09208,0.01667 -0.12711,0.05056 -0.0178,0.01695 -0.01412,0.04237 -0.02726,0.06271 a 0.35477818,0.35477818 0 0 1 -0.132901,0.04986 0.61252904,0.61252904 0 0 0 -0.165102,-0.06793 0.38133005,0.38133005 0 0 1 -0.219335,-0.399832 0.39785435,0.39785435 0 0 1 0.433445,-0.320317 h 0.01751 a 0.38514335,0.38514335 0 0 1 0.248288,0.159029 0.39983162,0.39983162 0 0 1 0.06553,0.302945 z m -7.125363,98.760108 a 1.7590614,1.7590614 0 0 1 0.793025,-1.18721 1.2927089,1.2927089 0 0 1 0.67792,-0.20281 1.1863601,1.1863601 0 0 1 0.337548,0.0503 c 0.21185,0.0619 0.322153,0.1079 0.391499,0.12852 l -0.31255,0.65405 A 3.3764657,3.3764657 0 0 0 56.32662,127.942 l -0.918864,1.92218 a 1.6327988,1.6327988 0 0 1 -0.811103,-1.69423 z m 0.345315,2.66818 -0.222725,0.46607 q 0.002,-0.27724 -0.02387,-0.57482 c 0.07344,0.0494 0.166514,0.0664 0.245887,0.10875 z m 0.494317,-23.35859 A 65.681417,65.681417 0 0 1 48.213894,80.739813 53.970771,53.970771 0 0 1 60.436934,43.37314 l -0.0257,55.738307 z m 4.975368,-4.20607 -0.0058,12.96141 a 47.571771,47.571771 0 0 1 -4.204083,-5.88194 z m -10.584027,-3.42081 0.01949,0.05649 -1.83801,4.22937 -4.13263,-1.79084 2.59474,-3.282964 z m -2.755039,-1.553567 1.617969,-2.045624 c 0.244475,0.855592 0.505192,1.724318 0.797686,2.612817 z m 1.394397,6.995427 3.539873,1.53365 a 15.080756,15.080756 0 0 0 -4.93893,1.68619 z m 0.350541,-0.80828 1.463319,-3.36813 c 0.594875,1.60738 1.267993,3.24342 2.043364,4.88667 z M 46.08805,80.019523 42.607354,78.475136 46.08579,76.367652 c -0.03376,1.192998 -0.03644,2.409017 0.0023,3.651871 z M 43.942856,72.684004 46.450313,71.2293 c -0.118353,1.01688 -0.204365,2.059747 -0.270603,3.118856 z m 2.186292,9.04642 c 0.04166,0.722267 0.128523,1.851145 0.298709,3.293561 l -3.391295,-1.349061 z m 0.505192,4.882154 c 0.132195,0.930728 0.29659,1.950433 0.500955,3.045132 l -3.5499,-0.994 z m -1.837587,-19.261687 2.483306,-1.316577 c -0.21524,1.01914 -0.384155,2.084039 -0.548127,3.153176 z m 2.680609,24.019556 q 0.305064,1.446088 0.704472,3.014626 l -3.252039,-0.918017 z m 1.693812,-32.160811 -3.755678,1.930377 -2.034749,-2.581745 3.986877,-1.816967 z m -0.984397,-2.840768 2.586265,-1.179157 c -0.428784,0.980301 -0.840197,1.985741 -1.22873,3.038353 z m 0.607304,4.025151 C 48.40922,61.585181 48.068,62.828176 47.751213,64.10323 l -1.780246,-2.25818 z m 2.868731,-7.194709 -1.445805,-2.40704 3.384798,-1.239182 c -0.664503,1.149781 -1.314882,2.357044 -1.938993,3.646222 z m 2.74247,-4.982572 -1.043856,-3.028467 4.039274,-1.384086 c -0.989905,1.3146 -1.995204,2.787099 -2.995418,4.412694 z M 53.066531,44.33494 52.269127,42.024503 a 8.1476108,8.1476108 0 0 0 3.169418,1.44058 z m -0.540359,1.134951 1.082836,3.141453 -3.853835,1.412334 -1.738441,-2.890341 0.0048,-0.0082 z m -3.61402,4.862382 -3.232267,1.18297 c 0.63555,-1.367139 1.254435,-2.540647 1.824594,-3.527303 z m 0.461691,0.769015 1.773609,2.949941 -3.492418,1.592547 -2.25465,-3.087078 z m -2.535844,4.914921 -3.550889,1.617828 c 0.514654,-1.569809 1.049646,-3.014909 1.588734,-4.302957 z m -2.219765,5.535641 -2.830599,1.454703 c 0.314668,-1.33183 0.651651,-2.585982 1.005158,-3.77093 z m 0.555612,0.703766 2.165531,2.749389 -3.218002,1.705817 -2.617901,-2.487402 c 0.01073,-0.04887 0.01949,-0.102818 0.03022,-0.151543 a 0.42482992,0.42482992 0 0 0 0.182614,-0.03842 z m -1.871624,4.890911 -2.588666,1.371093 q 0.268343,-1.698331 0.587107,-3.270682 z m 0.6734,0.638374 2.524688,2.398566 -3.326611,1.927977 -2.700381,-2.008762 c 0.02514,-0.182756 0.05508,-0.354637 0.08121,-0.535275 0.02542,-0.0078 0.0524,0.0061 0.07683,-0.0071 z m -1.629691,4.808007 -2.307753,1.339034 c 0.08799,-0.966178 0.185015,-1.916254 0.299132,-2.832435 z m 0.769157,0.572984 2.941043,2.189117 -4.429078,2.683434 -1.875861,-0.831865 c 0.05649,-1.024224 0.123861,-1.770077 0.16948,-2.189117 z m -2.407323,5.431129 -1.033687,0.625804 c 0.0079,-0.38133 0.01977,-0.7306 0.03291,-1.070266 z m 0.982419,0.433586 4.147883,1.842954 -3.814572,2.398566 -2.339954,-0.93214 c -0.01921,-0.738651 -0.02514,-1.428011 -0.02189,-2.079096 z m -0.590214,4.821142 -1.309939,0.823249 q -0.04237,-0.705461 -0.07062,-1.372365 z m 1.012784,0.402938 4.052268,1.611897 -3.692546,2.485706 -2.436982,-0.681592 q -0.108043,-1.025354 -0.18092,-1.995486 z M 41.513643,89.000128 40.2972,89.818434 C 40.24071,89.411117 40.194241,89.014957 40.146645,88.61795 Z m 1.113342,0.311561 4.452805,1.246101 -3.182693,2.620868 -3.216449,-0.909543 C 40.591106,91.765053 40.518795,91.27568 40.443376,90.78334 Z m 0.442343,4.546725 -1.760898,1.45089 Q 41.068334,94.26107 40.871455,93.239529 Z m 1.032416,0.291788 4.19463,1.182971 -2.169909,2.747271 -4.400407,-1.033264 c -0.06878,-0.264106 -0.125698,-0.522563 -0.190242,-0.784692 z m 1.420666,4.692761 -2.063278,2.609847 a 9.5024623,9.5024623 0 0 0 -1.200484,-2.519176 c -0.09124,-0.3069 -0.173858,-0.611399 -0.259021,-0.916745 z m -1.732368,4.427097 3.867251,1.67503 c 0,0 -2.300691,5.36136 -2.289816,5.43974 l -1.064758,2.53444 a 14.295216,14.295216 0 0 1 -1.974584,-4.41679 7.8322367,7.8322367 0 0 0 0.952478,-1.74282 8.2543832,8.2543832 0 0 0 0.509429,-3.49016 z m 2.41848,7.35219 c 0.79585,-1.87968 4.81987,-2.79176 6.872697,-3.07395 a 50.570296,50.570296 0 0 0 6.457471,9.77844 2.6584354,2.6584354 0 0 0 -1.027896,0.42596 2.739927,2.739927 0 0 0 -0.734414,3.71655 2.6711464,2.6711464 0 0 0 -1.416288,0.48373 2.721143,2.721143 0 0 0 -1.129866,1.77318 2.6879531,2.6879531 0 0 0 0.435846,1.99563 2.4417834,2.4417834 0 0 0 -0.84966,0.32893 2.860399,2.860399 0 0 0 -1.137494,1.3677 41.315133,41.315133 0 0 0 -3.923321,-6.26059 c -2.219341,-3.0553 -3.772908,-5.41969 -4.864641,-7.23637 z m 10.099738,13.29359 a 1.6422614,1.6422614 0 0 1 0.67792,-1.06533 1.58026,1.58026 0 0 1 0.908271,-0.28755 2.4498337,2.4498337 0 0 1 0.907566,0.19985 l -1.410215,2.95008 a 1.6457922,1.6457922 0 0 1 -1.083542,-1.79804 z m 2.156774,-4.2024 a 1.635341,1.635341 0 0 1 0.673118,-1.06321 1.5780002,1.5780002 0 0 1 0.912791,-0.28967 1.7712074,1.7712074 0 0 1 0.283173,0.0239 1.0883442,1.0883442 0 0 1 0.161995,0.0475 c 0.07598,0.0847 0.157758,0.16595 0.234871,0.24985 -7.06e-4,0.0191 -0.01031,0.05 -0.01412,0.073 l -0.504909,1.05614 a 13.261812,13.261812 0 0 0 -0.85418,1.66062 1.6450861,1.6450861 0 0 1 -0.892736,-1.75864 z M 63.0989,15.255694 a 3.5025871,3.5025871 0 0 1 1.707935,-0.651368 0.30633514,0.30633514 0 0 1 0.16948,0.03262 c 0.0435,0.145894 -0.298567,0.834407 -1.320249,1.505407 -1.008547,0.662243 -1.771207,0.708002 -1.875579,0.621426 -0.04308,-0.146459 0.29433,-0.834972 1.318413,-1.50809 z m -6.7792,5.598774 a 3.4629005,3.4629005 0 0 1 1.705816,-0.653346 0.31283187,0.31283187 0 0 1 0.16948,0.03036 c 0.0435,0.148154 -0.29659,0.836526 -1.31799,1.503147 a 2.6820213,2.6820213 0 0 1 -1.880098,0.625382 c -0.0435,-0.150555 0.296308,-0.836667 1.322792,-1.505548 z m -2.775236,3.036518 1.028179,-0.771134 a 1.1449788,1.1449788 0 0 0 0.307183,0.111009 3.7233348,3.7233348 0 0 0 2.48147,-0.760259 c 1.13255,-0.740628 2.030229,-1.873602 1.616274,-2.646996 l 2.884268,-2.160871 a 4.0293875,4.0293875 0 0 0 2.278941,-0.784269 3.4144575,3.4144575 0 0 0 1.71881,-2.206772 l 0.359439,-0.268343 1.205144,0.786387 -11.918259,9.613051 z m 2.602648,3.313053 c -0.166231,0.12485 -0.478781,0.372008 -0.93214,0.748537 -0.385284,-0.717042 -1.006852,-1.932921 -1.565854,-3.041744 l 1.491142,0.692044 a 0.62227414,0.62227414 0 0 0 0.0459,0.22908 c 0.02161,0.03517 0.365512,0.564369 0.960387,1.372506 z m 0.833277,1.088203 a 47.655663,47.655663 0 0 0 3.462053,3.905668 l -0.0013,2.446444 a 4.7338594,4.7338594 0 0 0 -8.949675,1.266864 4.8019339,4.8019339 0 0 0 3.858354,5.564594 4.7030706,4.7030706 0 0 0 5.089344,-2.632873 v 1.250622 c -0.687383,0.76266 -1.422079,1.64212 -2.180078,2.597422 a 0.42836075,0.42836075 0 0 0 -0.187982,-0.03884 c -0.104795,0.01751 -0.208884,0.01412 -0.313679,0.02684 -0.05183,-8.48e-4 -0.10084,-0.02542 -0.152391,-0.0071 l -0.07062,0.02613 c -0.197727,0.01737 -0.39616,0.05 -0.591486,0.05 a 7.4366421,7.4366421 0 0 1 -5.308961,-2.485707 c -0.02443,-0.02966 -0.06313,-0.03375 -0.09279,-0.05551 a 0.37568071,0.37568071 0 0 0 -0.111574,-0.06695 0.39545338,0.39545338 0 0 0 -0.189394,-0.0099 c -0.03178,0.0038 -0.06017,-0.01638 -0.09194,-0.0049 -0.01172,0.0038 -0.01412,0.01779 -0.0257,0.0226 -0.01158,0.0048 -0.0257,0 -0.03771,0.0058 a 0.42158155,0.42158155 0 0 0 -0.129652,0.142645 c -0.01808,0.02472 -0.04675,0.03715 -0.05918,0.06511 a 0.42468868,0.42468868 0 0 0 -0.02457,0.308454 l 0.0044,0.01412 v 0 l 0.0024,0.0078 1.221245,3.996904 -3.289325,1.205285 a 19.188952,19.188952 0 0 1 1.44058,-1.919502 0.52665916,0.52665916 0 0 0 0.377235,-0.382602 c 0.03785,-0.188405 0.828192,-4.410435 -2.181632,-6.535008 a 50.365508,50.365508 0 0 1 8.532754,-8.763954 z m 3.017592,9.132008 a 3.8668279,3.8668279 0 0 1 -4.494469,3.182835 3.9193667,3.9193667 0 0 1 -3.143572,-4.544465 3.8802451,3.8802451 0 0 1 3.811041,-3.243283 3.8077924,3.8077924 0 0 1 0.679615,0.06101 3.9193667,3.9193667 0 0 1 3.146114,4.544324 z m -14.229543,0.987928 a 1.0828361,1.0828361 0 0 1 1.004311,-0.923666 1.5576626,1.5576626 0 0 1 0.773394,0.241791 4.5073211,4.5073211 0 0 1 2.07613,3.631675 5.6363406,5.6363406 0 0 0 -2.625104,-1.631669 c -0.289952,-0.109033 -0.579057,-0.217923 -0.862936,-0.346446 a 0.81802357,0.81802357 0 0 1 -0.365795,-0.971685 z m 0.180355,2.074576 c 0.221031,0.09194 0.442343,0.183604 0.664927,0.267355 a 3.9190842,3.9190842 0 0 1 2.812097,2.49983 25.970695,25.970695 0 0 0 -3.004457,4.349988 1.0403249,1.0403249 0 0 0 -0.820707,-0.826074 2.7899236,2.7899236 0 0 0 1.542551,-1.198224 2.8560208,2.8560208 0 0 0 -0.884545,-3.908209 2.174005,2.174005 0 0 0 -0.881578,-0.320882 q 0.286845,-0.441778 0.571712,-0.86449 z m -1.668389,2.610416 a 1.0471041,1.0471041 0 0 1 0.481606,-0.12711 1.1026088,1.1026088 0 1 1 -1.077187,1.13933 c 0.198715,-0.343621 0.396724,-0.683428 0.595581,-1.012926 z m -1.103598,1.898318 a 1.8305255,1.8305255 0 0 0 1.585204,0.946263 1.8634328,1.8634328 0 0 0 0.06285,-3.725594 c 0.02217,-0.03503 0.04421,-0.07189 0.0661,-0.10649 a 1.2304249,1.2304249 0 0 1 0.958127,0.21185 2.0837569,2.0837569 0 0 1 0.640352,2.853902 2.0241564,2.0241564 0 0 1 -2.808143,0.651368 1.3075384,1.3075384 0 0 1 -0.557166,-0.738509 z m -2.102823,4.112856 0.156487,0.06158 -0.25422,0.141233 c 0.03178,-0.07005 0.06567,-0.134312 0.09773,-0.203517 z m 0.890759,0.532168 0.686253,1.115743 -1.416288,0.869291 -0.633856,-1.22647 z m 1.087497,1.768947 0.06511,0.104513 c -0.246169,0.612247 -0.533579,1.344118 -0.838502,2.132624 l -0.690772,-1.337621 z m -0.148154,-1.627997 0.875647,0.321871 -0.48895,0.32173 z m -2.755604,1.413464 0.43062,0.832429 -1.02154,0.6275 c 0.194619,-0.492904 0.389098,-0.984114 0.59092,-1.459929 z m 0.783563,1.516564 0.865054,1.67531 -1.782083,1.233108 -0.862794,-1.816967 z m 0.655887,2.75405 c -0.246169,0.664503 -0.48782,1.333384 -0.710262,1.973877 l -0.529343,-1.115743 z m -2.824667,-0.692044 0.611823,1.288614 -1.360359,0.940896 c 0.239249,-0.760824 0.489514,-1.501593 0.747971,-2.22951 z m 0.944993,1.992379 0.797403,1.679547 -1.777704,1.163339 -0.864772,-1.568537 z m 0.82791,2.462828 -0.308737,1.029732 -0.978323,-0.257327 0.257468,-0.102959 z m -3.089198,-0.354637 0.42935,0.778337 -0.590356,-0.170469 c 0.05423,-0.201116 0.104231,-0.408871 0.160442,-0.607868 z m -2.108896,2.569458 -8.47e-4,9.89e-4 -0.0037,-0.0037 z m 0.166938,6.953624 a 1.9005772,1.9005772 0 0 1 0.401526,1.527156 1.8764263,1.8764263 0 0 1 -0.707014,1.158114 c 0.08389,-0.912085 0.189394,-1.803833 0.304923,-2.68527 z m -0.451947,3.574192 a 2.9037577,2.9037577 0 0 0 1.669802,-2.322017 2.4141017,2.4141017 0 0 0 -1.178592,-2.411418 l 0.12711,-0.749526 a 3.4977852,3.4977852 0 0 1 1.624183,3.222945 4.1805072,4.1805072 0 0 1 -2.320322,3.03228 z m -0.04392,1.623195 a 4.1782474,4.1782474 0 0 0 0.895843,-7.830824 q 0.294189,-1.716833 0.657441,-3.35288 l 2.94754,0.687948 c -0.06115,0.259304 -0.141233,0.60349 -0.235295,1.021823 a 1.4578106,1.4578106 0 0 0 -1.150345,-1.023942 1.4575282,1.4575282 0 0 0 -1.694801,1.195964 1.4741937,1.4741937 0 0 0 1.185089,1.710195 1.4390266,1.4390266 0 0 0 1.091593,-0.240097 1.5497536,1.5497536 0 0 0 0.278795,-0.252807 63.977437,63.977437 0 0 0 -1.222093,9.890571 1.4688268,1.4688268 0 0 0 -1.093711,-0.86915 1.4353545,1.4353545 0 0 0 -1.093711,0.241792 1.456822,1.456822 0 0 0 -0.60123,0.954172 1.4787132,1.4787132 0 0 0 1.182829,1.710195 h 0.0023 l 0.0023,0.0021 -1.267711,0.01638 q 0.0064,-1.971476 0.114823,-3.861461 z m 3.228453,-8.979475 a 0.39545338,0.39545338 0 0 1 -0.159029,0.250548 0.40449232,0.40449232 0 0 1 -0.272298,0.06101 0.37907031,0.37907031 0 0 1 -0.298426,-0.444462 0.37327975,0.37327975 0 0 1 0.155357,-0.248288 0.34757528,0.34757528 0 0 1 0.204788,-0.06539 0.37921155,0.37921155 0 0 1 0.304782,0.15691 0.37991771,0.37991771 0 0 1 0.0644,0.28967 z m -0.986798,12.583892 a 1.4678382,1.4678382 0 0 0 0.485702,-0.572843 c 0,0.265801 0,0.529201 0.0045,0.793025 l -1.031003,0.01285 a 1.4674145,1.4674145 0 0 0 0.540359,-0.2336 z M 36.6233,76.301414 a 0.39545338,0.39545338 0 0 1 -0.270039,0.06087 0.38712061,0.38712061 0 0 1 -0.146035,-0.692043 0.36720671,0.36720671 0 0 1 0.27018,-0.06101 0.38810925,0.38810925 0 0 1 0.304922,0.442202 0.39714818,0.39714818 0 0 1 -0.159452,0.249418 z m -1.705393,6.264122 0.853755,0.76605 -0.80503,1.294263 c -0.03178,-0.798393 -0.04646,-1.488318 -0.04915,-2.060878 z m 0.02443,-2.092089 0.336701,-0.01751 -0.343762,0.504062 c 0.0052,-0.15451 0.0099,-0.264954 0.01059,-0.279784 -0.0032,-0.07076 -0.0013,-0.138126 -0.004,-0.20733 z m 2.040398,10.524427 -1.22647,-1.041314 1.045127,-1.892527 1.211358,1.165599 z m 1.224494,-0.948382 0.141233,1.062216 -0.726222,0.141233 z m -1.592689,-3.232267 -1.31799,-1.267852 1.05459,-1.6948 1.272089,1.13933 z m 0.573125,0.55081 0.649673,-1.172237 c 0.03037,0.645013 0.06737,1.287625 0.110869,1.904108 z m -0.422711,-4.17627 0.871409,-1.400894 0.03474,0.02613 c 0.01737,0.649673 0.04152,1.422643 0.07189,2.252672 z m 0.695009,-2.351959 -0.695009,-0.463245 0.759411,-0.09011 z M 37.024117,81.32 l -0.840762,1.350755 -0.92183,-0.827768 0.841044,-1.230849 z m -1.96611,5.063498 1.173085,1.12803 -0.93553,1.691835 q -0.156769,-1.520519 -0.237978,-2.819724 z m 0.406752,4.331485 0.827487,0.702777 -0.718172,0.111575 c -0.03729,-0.271733 -0.07697,-0.549398 -0.109738,-0.814211 z m 2.001701,6.168649 a 0.8474001,0.8474001 0 0 1 1.283246,0.220183 1.2146068,1.2146068 0 0 1 -0.189677,1.570656 0.8346891,0.8346891 0 0 1 -0.660124,0.20041 0.90700058,0.90700058 0 0 1 -0.6275,-0.418333 1.2218097,1.2218097 0 0 1 0.193631,-1.572775 z m -0.281055,2.533727 a 1.5789889,1.5789889 0 0 0 0.607304,0.217781 1.5959369,1.5959369 0 0 0 1.263614,-0.372573 2.00396,2.00396 0 0 0 0.331193,-2.585842 1.6784171,1.6784171 0 0 0 -1.159244,-0.749384 1.5915586,1.5915586 0 0 0 -1.247938,0.361558 1.0752095,1.0752095 0 0 1 0.886522,-0.568465 1.8140012,1.8140012 0 0 1 1.29172,0.358874 2.1942013,2.1942013 0 0 1 0.746419,1.492978 1.9299537,1.9299537 0 0 1 -1.673192,2.316227 1.1978,1.1978 0 0 1 -0.855168,-0.260576 1.1298668,1.1298668 0 0 1 -0.191653,-0.210437 z m 0.173011,1.073371 a 1.7953584,1.7953584 0 0 0 0.661396,0.12711 1.7572253,1.7572253 0 0 0 0.213404,-0.0113 2.7726931,2.7726931 0 0 0 2.337694,-3.058547 2.9437267,2.9437267 0 0 0 -1.00431,-2.021755 2.305352,2.305352 0 0 0 -1.773468,-0.568606 1.7892853,1.7892853 0 0 0 -1.48408,1.00431 c -0.250406,-1.27223 -0.46381,-2.504773 -0.633008,-3.672067 l 3.069284,-0.473696 a 0.38373101,0.38373101 0 0 0 0.25422,-0.156911 0.39305241,0.39305241 0 0 0 0.02613,-0.06016 A 75.844993,75.844993 0 0 1 38.227001,79.624776 0.35675544,0.35675544 0 0 0 37.991,79.550769 l -3.061515,0.153662 c -0.01017,-0.387827 -0.01412,-0.771275 -0.01864,-1.154724 l 3.355846,-0.04406 0.04647,-0.193349 c 0,0 0.308877,-5.766416 0.686535,-8.306357 0.364382,-2.450822 1.2711,-7.169429 1.458093,-7.775037 a 0.55448213,0.55448213 0 0 0 -0.159876,-0.07358 l -3.492842,-0.815481 c 0.09138,-0.378929 0.191654,-0.745571 0.288398,-1.117438 l 3.082559,0.891465 a 0.35633174,0.35633174 0 0 0 0.106773,0.01525 0.37779921,0.37779921 0 0 0 0.197727,-0.05438 0.38471965,0.38471965 0 0 0 0.17866,-0.250548 A 12.800261,12.800261 0 0 1 41.090514,59.24 c 0,0 3.433524,-9.158418 3.44214,-9.180168 a 0.37878785,0.37878785 0 0 0 -0.0023,-0.29659 0.38401348,0.38401348 0 0 0 -0.213262,-0.206765 l -2.908419,-1.142154 q 0.626229,-1.302031 1.272089,-2.506751 a 2.2738569,2.2738569 0 0 0 0.588378,0.564933 2.733289,2.733289 0 0 0 1.618676,0.431327 1.0523297,1.0523297 0 0 0 0.524823,1.960601 1.0249304,1.0249304 0 0 0 0.356896,-0.07245 57.50217,57.50217 0 0 0 -5.074231,13.989163 0.71647679,0.71647679 0 0 0 0.0045,-0.132477 c -0.282467,1.575034 -1.189467,6.703359 -1.391713,8.696585 -0.240097,2.368342 -0.583435,6.349851 -0.652075,7.448223 a 1.5984791,1.5984791 0 0 1 -0.07471,0.437823 66.668921,66.668921 0 0 0 2.691625,20.236056 c 0.204647,1.463314 0.203376,3.888714 -0.64812,4.670874 a 11.026935,11.026935 0 0 1 -1.137211,0.88666 c -0.200128,0.14123 -0.398278,0.28755 -0.587531,0.4398 -0.598547,-1.68548 -1.108964,-3.34879 -1.542127,-4.97438 z m 2.704901,8.43869 h -0.01017 a 0.61309397,0.61309397 0 0 0 -0.267495,-0.0528 1.27223,1.27223 0 0 1 -0.956998,-1.0793 c -0.06511,-0.26354 0.187558,-0.69317 0.256198,-0.87409 a 0.58555347,0.58555347 0 0 0 0.09745,-0.21779 4.269343,4.269343 0 0 1 0.937648,-0.78652 11.839592,11.839592 0 0 0 1.24596,-0.97367 4.5769492,4.5769492 0 0 0 1.098231,-3.04132 6.9684535,6.9684535 0 0 1 -0.150414,4.31567 5.0726782,5.0726782 0 0 1 -1.842954,2.65123 1.6754512,1.6754512 0 0 1 -0.407881,0.0582 z m 11.894956,27.45859 c -2.273857,1.31573 -3.995774,1.57927 -4.845293,0.76026 a 2.606179,2.606179 0 0 1 -0.44658,-2.60561 2.239396,2.239396 0 0 1 1.435778,-1.30062 2.612817,2.612817 0 0 1 1.803833,0.57906 0.66775128,0.66775128 0 0 0 0.503073,0.15931 0.68681778,0.68681778 0 0 0 0.468612,-0.24193 c 3.705681,-4.47046 -3.472787,-12.75338 -3.75596,-13.07567 A 51.423063,51.423063 0 0 1 40.699997,109.9367 c 0.01412,-0.003 0.02613,-0.001 0.04096,-0.006 a 2.0459063,2.0459063 0 0 0 0.719301,-0.43782 c 0.504203,1.53153 2.133471,5.044 7.410797,12.30933 5.359382,7.37888 4.971414,9.14783 4.479074,11.38511 -0.107478,0.48753 -0.214675,0.99837 -0.284585,1.57574 l -0.75348,1.57588 a 0.62566374,0.62566374 0 0 0 -0.354213,0.0482 z m 0.533579,1.78858 6.302397,-12.22403 c 0.01412,-0.0267 0.02613,-0.0554 0.03955,-0.0826 l 2.721708,-6.30494 c 0.0613,0.0627 0.515078,0.52793 0.576939,0.59022 l -8.649554,17.95711 c -0.07542,0.004 -0.918865,0.0619 -0.991459,0.0638 z m 2.000429,-0.22597 1.518259,-2.7888 4.653356,-10.03632 -0.0024,10e-4 0.05169,-0.1079 v 0 l 2.05212,-4.2685 a 42.603605,42.603605 0 0 0 4.11441,3.4711 l 0.215946,1.04357 c -0.0185,0.21679 -0.05791,0.42751 -0.05791,0.64868 a 0.38471965,0.38471965 0 0 0 0.31142,0.37682 c 0.155357,0.0301 0.316645,0.0594 0.473697,0.0893 -5.6362,8.25 -10.23504,10.90448 -13.331016,11.57025 z m 17.360404,-12.54053 c -0.0047,0.0371 -0.07584,0.0877 -0.1901,0.13558 l -2.863083,-0.51056 -0.0055,-0.01 a 1.5535669,1.5535669 0 0 1 1.533653,-1.36812 1.3275935,1.3275935 0 0 1 0.187417,0.0113 1.5582276,1.5582276 0 0 1 1.337197,1.74239 z m -1.243984,-2.5052 a 2.3203227,2.3203227 0 0 0 -2.333175,1.29935 l -0.06313,-0.3045 0.654052,-1.61105 a 6.7111263,6.7111263 0 0 1 5.65117,-3.2019 2.6399338,2.6399338 0 0 0 -1.318555,1.95057 2.7085732,2.7085732 0 0 0 0.544596,1.99549 2.5751077,2.5751077 0 0 0 0.230917,0.20252 2.9314394,2.9314394 0 0 0 -1.549048,1.01957 2.3115662,2.3115662 0 0 0 -1.817249,-1.35048 z m 7.145561,-1.28974 a 1.9052379,1.9052379 0 0 1 -3.402736,0.94993 1.9425235,1.9425235 0 0 1 -0.390086,-1.43366 1.9183726,1.9183726 0 0 1 1.893233,-1.69706 1.7737496,1.7737496 0 0 1 0.240097,0.0153 1.9329196,1.9329196 0 0 1 1.659068,2.16511 z m -1.56642,-4.71452 a 1.5859093,1.5859093 0 0 1 1.560064,-1.39821 1.4547035,1.4547035 0 0 1 0.191512,0.0127 1.5979141,1.5979141 0 0 1 0.762661,2.83879 1.5535669,1.5535669 0 0 1 -1.152465,0.3158 1.5856268,1.5856268 0 0 1 -1.362195,-1.76993 z m 0.642612,9.42225 c -0.01412,0.0551 -0.02005,0.0949 -0.02825,0.13954 l -4.205787,-0.74995 a 2.1088964,2.1088964 0 0 1 2.360574,-1.81217 2.1749936,2.1749936 0 0 1 1.873036,2.42215 z m 2.66013,0.61888 -1.933484,-0.34489 c 0.0047,-0.0282 0.01483,-0.0637 0.01638,-0.0847 a 1.5467877,1.5467877 0 0 1 1.492271,-1.16998 1.3780138,1.3780138 0 0 1 0.189677,0.0127 1.5320994,1.5320994 0 0 1 1.322226,1.50753 1.6446624,1.6446624 0 0 1 -1.087496,0.0785 z m 1.78745,-0.69204 a 2.2923585,2.2923585 0 0 0 -3.791833,-1.03764 2.943868,2.943868 0 0 0 -0.80955,-1.28777 2.678208,2.678208 0 0 0 1.840271,-2.2151 2.6486903,2.6486903 0 0 0 -0.305064,-1.52179 6.8369653,6.8369653 0 0 1 3.097953,5.7263 c -4.24e-4,0.11666 -0.02147,0.22202 -0.0322,0.33529 z m 0.341078,-2.94825 a 7.6210928,7.6210928 0 0 0 -3.250627,-3.93434 2.3636814,2.3636814 0 0 0 -0.330909,-4.61409 h -0.0023 a 2.3578908,2.3578908 0 0 0 -2.217364,3.67065 7.6497632,7.6497632 0 0 0 -4.520456,0.64488 l 0.67326,-0.79091 a 0.37327975,0.37327975 0 0 0 0.1764,-0.0458 9.1280527,9.1280527 0 0 1 2.646996,-0.59473 0.38203621,0.38203621 0 0 0 0.348564,-0.38133 2.6515149,2.6515149 0 0 1 2.538104,-2.68612 2.5745427,2.5745427 0 0 1 2.553075,2.59036 2.788935,2.788935 0 0 1 -0.888781,2.04562 0.38500211,0.38500211 0 0 0 0.106631,0.64261 4.4611378,4.4611378 0 0 1 2.113416,2.47922 0.38231868,0.38231868 0 0 0 0.07824,0.1199 z m 0.06751,-2.38543 a 5.2495024,5.2495024 0 0 0 -1.47264,-1.51402 3.6343578,3.6343578 0 0 0 0.786387,-2.24166 3.3427109,3.3427109 0 0 0 -3.319973,-3.35726 3.4148812,3.4148812 0 0 0 -3.287629,3.10714 14.048764,14.048764 0 0 0 -1.4749,0.25422 l 8.890639,-10.45212 a 2.7051836,2.7051836 0 0 0 0.280913,0.10409 z m 1.420242,1.40033 -0.747407,1.9332 0.491775,-17.2364 c 0.05649,0.004 0.112987,0.01 0.16948,0.01 a 2.483306,2.483306 0 0 0 0.521292,-0.0893 z m 0.828051,-2.14124 0.382178,-13.53919 a 2.6205848,2.6205848 0 0 0 0.306194,-0.16807 2.6098511,2.6098511 0 0 0 2.584146,2.22202 2.5381045,2.5381045 0 0 0 1.329712,-0.41649 z m 5.125924,-13.89454 a 1.8689409,1.8689409 0 1 1 -1.855948,-2.12838 1.6469221,1.6469221 0 0 1 0.230917,0.0151 1.8925269,1.8925269 0 0 1 1.624607,2.11256 z m 0.636962,-1.00982 a 2.5974225,2.5974225 0 0 0 -4.094072,-1.31686 2.6431822,2.6431822 0 0 0 -0.25422,-0.7652 l 8.611279,-8.945153 z m 4.978479,-12.87624 -9.779989,10.15906 a 2.5907846,2.5907846 0 0 0 -0.415509,-0.32865 L 95.29813,90.78673 Z m -3.920359,-0.908554 a 6.1179463,6.1179463 0 0 1 -0.723114,-0.04124 2.3488519,2.3488519 0 0 0 1.052047,-1.233108 2.3790758,2.3790758 0 0 0 -0.165526,-2.001983 2.9125142,2.9125142 0 0 0 1.657797,-0.632019 2.3323275,2.3323275 0 0 0 2.285155,1.88377 2.2683488,2.2683488 0 0 0 0.48598,-0.05212 6.1744396,6.1744396 0 0 1 -4.592762,2.075989 z m 5.568409,-3.81895 a 1.5739045,1.5739045 0 0 1 -2.013,0.923666 1.5912762,1.5912762 0 0 1 -0.919288,-2.023874 c 0.03474,-0.07189 0.06737,-0.145894 0.09787,-0.2199 a 1.5665603,1.5665603 0 0 1 2.834418,1.320108 z m 0.56649,-1.714573 a 2.3292204,2.3292204 0 0 0 -3.193855,-0.884403 2.9995139,2.9995139 0 0 0 -0.629477,-1.67531 2.3461684,2.3461684 0 0 0 1.720932,-1.479278 2.3766748,2.3766748 0 0 0 0.0936,-1.322368 6.3118597,6.3118597 0 0 1 2.00834,5.36023 z m 0.19899,-3.565577 a 6.9718431,6.9718431 0 0 0 -2.43994,-2.930309 2.1077665,2.1077665 0 0 0 0.58301,-0.316504 2.164966,2.164966 0 0 0 -1.03694,-3.855671 h -0.002 a 2.1492891,2.1492891 0 0 0 -2.389948,1.878404 2.1136983,2.1136983 0 0 0 0.232046,1.187772 6.3728725,6.3728725 0 0 0 -2.918305,0.09618 l 0.196173,-0.247017 a 18.079564,18.079564 0 0 0 2.002407,-0.248288 0.38344855,0.38344855 0 0 0 0.311419,-0.376952 2.3444736,2.3444736 0 0 1 2.241515,-2.378935 2.2816248,2.2816248 0 0 1 2.265663,2.289534 1.9757133,1.9757133 0 0 1 -0.69472,1.618817 0.38373101,0.38373101 0 0 0 -0.13305,0.307041 0.38980405,0.38980405 0 0 0 0.15903,0.294189 5.4110734,5.4110734 0 0 1 1.62094,2.3223 l 0.0129,0.02825 z m 0.0576,-1.92953 a 6.154102,6.154102 0 0 0 -0.89542,-1.087497 2.7859691,2.7859691 0 0 0 0.64967,-1.886877 3.0471095,3.0471095 0 0 0 -3.032844,-3.05629 3.1092522,3.1092522 0 0 0 -2.99104,2.818877 c -0.217782,0.03488 -0.538099,0.08276 -0.903894,0.124285 L 96.11502,69.6513 a 2.4314734,2.4314734 0 0 0 1.20924,0.50957 c 0.0456,0.0045 0.0917,0.01102 0.13742,0.01313 z m 1.16348,2.535986 -0.51296,1.32604 0.43217,-14.212312 a 2.4831648,2.4831648 0 0 0 0.51847,-0.196032 z m 0.34404,-13.931964 a 1.6719204,1.6719204 0 0 1 -1.23297,0.337689 1.7104771,1.7104771 0 0 1 -0.81491,-3.043437 1.6563847,1.6563847 0 0 1 1.02168,-0.353084 1.571786,1.571786 0 0 1 0.20267,0.01313 h 0.007 a 1.6466396,1.6466396 0 0 1 0.56493,0.178519 0.38020018,0.38020018 0 0 0 0.0914,0.0524 1.7089235,1.7089235 0 0 1 0.62524,0.668881 0.38500211,0.38500211 0 0 0 0.12711,0.311419 1.7127368,1.7127368 0 0 1 -0.59036,1.834339 z m 0.49672,11.757677 0.33981,-10.145639 a 2.4479977,2.4479977 0 0 0 1.6948,1.028461 2.367071,2.367071 0 0 0 1.6537,-0.422711 z m 4.00848,-11.363777 a 1.7051102,1.7051102 0 0 1 -0.64487,1.14399 1.6635876,1.6635876 0 0 1 -1.2307,0.339949 1.7131605,1.7131605 0 0 1 -0.8169,-3.047957 1.6569497,1.6569497 0 0 1 1.0214,-0.353083 1.6346348,1.6346348 0 0 1 0.20493,0.01299 1.7089235,1.7089235 0 0 1 1.46614,1.904108 z m 0.6936,-0.797686 a 2.4591551,2.4591551 0 0 0 -2.0596,-1.868799 h -0.002 a 2.4364165,2.4364165 0 0 0 -1.7513,0.461691 2.3518178,2.3518178 0 0 0 -0.0677,-0.272298 l 8.40508,-10.021071 z m 5.38099,-13.915722 -9.63861,11.491875 a 2.5986936,2.5986936 0 0 0 -0.39658,-0.422711 l 9.02241,-10.807035 a 6.6224318,6.6224318 0 0 0 1.34087,-1.111082 z m 0.76648,-3.072249 a 1.450184,1.450184 0 0 1 -2.72087,-1.00431 c 0.039,-0.07641 0.0739,-0.154651 0.10452,-0.233176 a 1.4503253,1.4503253 0 0 1 2.61635,1.237486 z m 0.54473,-1.673191 a 2.2095958,2.2095958 0 0 0 -2.96957,-0.803901 2.8591279,2.8591279 0 0 0 -0.57087,-1.522778 2.2302158,2.2302158 0 0 0 1.70384,-2.588101 5.9207845,5.9207845 0 0 1 1.83618,4.915345 z m 0.78653,-1.021682 c -0.003,0.01412 -0.008,0.02825 -0.0102,0.04138 a 6.6193247,6.6193247 0 0 0 -4.22514,-5.827571 6.4482911,6.4482911 0 0 0 -6.60477,1.220398 l -0.63654,0.369043 c 0.92677,-2.196744 0.3052,-2.591774 -0.17174,-2.883138 -0.61761,-0.377517 -1.16701,0.06864 -1.54453,0.274558 a 38.941142,38.941142 0 0 0 -2.61282,4.286714 l 0.12231,-2.442066 1.28113,-2.154514 a 0.69952878,0.69952878 0 0 0 0.0956,-0.365936 c 1.41234,-1.464025 4.22444,-1.829961 8.3767,-1.084955 a 7.3946958,7.3946958 0 0 1 5.92954,8.566651 z"
     id="path2"
     style="stroke-width:1.41233" />
</svg>
